<svg xmlns="http://www.w3.org/2000/svg" width="390" height="48" viewBox="0 0 390 48" fill="none"><rect width="390" height="48" fill="white"></rect><rect width="390" height="48" fill="white"></rect><g clip-path="url(#clip0_11_52)"><path d="M15.152 25.52C15.152 26.8533 15.6907 27.52 16.768 27.52C17.0133 27.52 17.2427 27.488 17.456 27.424C17.6693 27.36 17.8507 27.2853 18 27.2V23.392C17.8827 23.3707 17.744 23.3547 17.584 23.344C17.424 23.3227 17.2373 23.312 17.024 23.312C16.3947 23.312 15.9253 23.52 15.616 23.936C15.3067 24.352 15.152 24.88 15.152 25.52ZM20.384 28.944C20.384 30.32 20.032 31.3387 19.328 32C18.6347 32.672 17.5573 33.008 16.096 33.008C15.584 33.008 15.072 32.96 14.56 32.864C14.048 32.7787 13.5733 32.6613 13.136 32.512L13.552 30.512C13.9253 30.6613 14.3147 30.7787 14.72 30.864C15.136 30.9493 15.6053 30.992 16.128 30.992C16.8107 30.992 17.2907 30.8427 17.568 30.544C17.856 30.2453 18 29.8613 18 29.392V29.088C17.744 29.2053 17.4773 29.296 17.2 29.36C16.9333 29.4133 16.64 29.44 16.32 29.44C15.1573 29.44 14.2667 29.0987 13.648 28.416C13.0293 27.7227 12.72 26.7573 12.72 25.52C12.72 24.9013 12.816 24.3413 13.008 23.84C13.2 23.328 13.4773 22.8907 13.84 22.528C14.2133 22.1653 14.6667 21.888 15.2 21.696C15.7333 21.4933 16.336 21.392 17.008 21.392C17.296 21.392 17.5893 21.408 17.888 21.44C18.1973 21.4613 18.5013 21.4933 18.8 21.536C19.0987 21.5787 19.3813 21.632 19.648 21.696C19.9253 21.7493 20.1707 21.808 20.384 21.872V28.944ZM25.82 30.16C25.1267 30.1493 24.5613 30.0747 24.124 29.936C23.6973 29.7973 23.356 29.6053 23.1 29.36C22.8547 29.104 22.684 28.8 22.588 28.448C22.5027 28.0853 22.46 27.68 22.46 27.232V17.968L24.844 17.584V26.752C24.844 26.9653 24.86 27.1573 24.892 27.328C24.924 27.4987 24.9827 27.6427 25.068 27.76C25.164 27.8773 25.2973 27.9733 25.468 28.048C25.6387 28.1227 25.868 28.1707 26.156 28.192L25.82 30.16ZM35.2345 25.776C35.2345 26.4373 35.1385 27.0453 34.9465 27.6C34.7545 28.144 34.4772 28.6133 34.1145 29.008C33.7518 29.392 33.3145 29.6907 32.8025 29.904C32.3012 30.1173 31.7358 30.224 31.1065 30.224C30.4878 30.224 29.9225 30.1173 29.4105 29.904C28.9092 29.6907 28.4772 29.392 28.1145 29.008C27.7518 28.6133 27.4692 28.144 27.2665 27.6C27.0638 27.0453 26.9625 26.4373 26.9625 25.776C26.9625 25.1147 27.0638 24.512 27.2665 23.968C27.4798 23.424 27.7678 22.96 28.1305 22.576C28.5038 22.192 28.9412 21.8933 29.4425 21.68C29.9545 21.4667 30.5092 21.36 31.1065 21.36C31.7145 21.36 32.2692 21.4667 32.7705 21.68C33.2825 21.8933 33.7198 22.192 34.0825 22.576C34.4452 22.96 34.7278 23.424 34.9305 23.968C35.1332 24.512 35.2345 25.1147 35.2345 25.776ZM32.8025 25.776C32.8025 25.04 32.6532 24.464 32.3545 24.048C32.0665 23.6213 31.6505 23.408 31.1065 23.408C30.5625 23.408 30.1412 23.6213 29.8425 24.048C29.5438 24.464 29.3945 25.04 29.3945 25.776C29.3945 26.512 29.5438 27.0987 29.8425 27.536C30.1412 27.9627 30.5625 28.176 31.1065 28.176C31.6505 28.176 32.0665 27.9627 32.3545 27.536C32.6532 27.0987 32.8025 26.512 32.8025 25.776ZM42.3133 25.728C42.3133 24.192 41.7479 23.424 40.6173 23.424C40.3719 23.424 40.1266 23.456 39.8813 23.52C39.6466 23.584 39.4546 23.664 39.3053 23.76V28.096C39.4226 28.1173 39.5719 28.1387 39.7533 28.16C39.9346 28.1707 40.1319 28.176 40.3453 28.176C40.9959 28.176 41.4866 27.952 41.8173 27.504C42.1479 27.056 42.3133 26.464 42.3133 25.728ZM44.7453 25.792C44.7453 26.464 44.6439 27.072 44.4413 27.616C44.2493 28.16 43.9666 28.624 43.5933 29.008C43.2199 29.392 42.7613 29.6907 42.2173 29.904C41.6733 30.1067 41.0546 30.208 40.3613 30.208C40.0733 30.208 39.7693 30.192 39.4493 30.16C39.1399 30.1387 38.8306 30.1067 38.5213 30.064C38.2226 30.0213 37.9346 29.9733 37.6573 29.92C37.3799 29.856 37.1346 29.792 36.9213 29.728V17.968L39.3053 17.584V21.776C39.5719 21.6587 39.8493 21.568 40.1373 21.504C40.4253 21.44 40.7346 21.408 41.0653 21.408C41.6626 21.408 42.1906 21.5147 42.6493 21.728C43.1079 21.9307 43.4919 22.224 43.8013 22.608C44.1106 22.992 44.3453 23.456 44.5053 24C44.6653 24.5333 44.7453 25.1307 44.7453 25.792ZM54.2895 25.776C54.2895 26.4373 54.1935 27.0453 54.0015 27.6C53.8095 28.144 53.5322 28.6133 53.1695 29.008C52.8068 29.392 52.3695 29.6907 51.8575 29.904C51.3562 30.1173 50.7908 30.224 50.1615 30.224C49.5428 30.224 48.9775 30.1173 48.4655 29.904C47.9642 29.6907 47.5322 29.392 47.1695 29.008C46.8068 28.6133 46.5242 28.144 46.3215 27.6C46.1188 27.0453 46.0175 26.4373 46.0175 25.776C46.0175 25.1147 46.1188 24.512 46.3215 23.968C46.5348 23.424 46.8228 22.96 47.1855 22.576C47.5588 22.192 47.9962 21.8933 48.4975 21.68C49.0095 21.4667 49.5642 21.36 50.1615 21.36C50.7695 21.36 51.3242 21.4667 51.8255 21.68C52.3375 21.8933 52.7748 22.192 53.1375 22.576C53.5002 22.96 53.7828 23.424 53.9855 23.968C54.1882 24.512 54.2895 25.1147 54.2895 25.776ZM51.8575 25.776C51.8575 25.04 51.7082 24.464 51.4095 24.048C51.1215 23.6213 50.7055 23.408 50.1615 23.408C49.6175 23.408 49.1962 23.6213 48.8975 24.048C48.5988 24.464 48.4495 25.04 48.4495 25.776C48.4495 26.512 48.5988 27.0987 48.8975 27.536C49.1962 27.9627 49.6175 28.176 50.1615 28.176C50.7055 28.176 51.1215 27.9627 51.4095 27.536C51.7082 27.0987 51.8575 26.512 51.8575 25.776ZM57.8279 28.736C57.8279 29.216 57.6732 29.584 57.3639 29.84C57.0652 30.0853 56.7239 30.208 56.3399 30.208C55.9559 30.208 55.6092 30.0853 55.2999 29.84C55.0012 29.584 54.8519 29.216 54.8519 28.736C54.8519 28.256 55.0012 27.8933 55.2999 27.648C55.6092 27.392 55.9559 27.264 56.3399 27.264C56.7239 27.264 57.0652 27.392 57.3639 27.648C57.6732 27.8933 57.8279 28.256 57.8279 28.736ZM58.385 25.792C58.385 25.184 58.481 24.6133 58.673 24.08C58.8757 23.536 59.1637 23.0667 59.537 22.672C59.9103 22.2667 60.3637 21.9467 60.897 21.712C61.4303 21.4773 62.0383 21.36 62.721 21.36C63.169 21.36 63.5797 21.4027 63.953 21.488C64.3263 21.5627 64.689 21.6747 65.041 21.824L64.545 23.728C64.321 23.6427 64.0757 23.568 63.809 23.504C63.5423 23.44 63.2437 23.408 62.913 23.408C62.209 23.408 61.681 23.6267 61.329 24.064C60.9877 24.5013 60.817 25.0773 60.817 25.792C60.817 26.5493 60.977 27.136 61.297 27.552C61.6277 27.968 62.1983 28.176 63.009 28.176C63.297 28.176 63.6063 28.1493 63.937 28.096C64.2677 28.0427 64.5717 27.9573 64.849 27.84L65.185 29.792C64.9077 29.9093 64.561 30.0107 64.145 30.096C63.729 30.1813 63.2703 30.224 62.769 30.224C62.001 30.224 61.3397 30.112 60.785 29.888C60.2303 29.6533 59.7717 29.3387 59.409 28.944C59.057 28.5493 58.7957 28.0853 58.625 27.552C58.465 27.008 58.385 26.4213 58.385 25.792ZM74.0908 25.776C74.0908 26.4373 73.9948 27.0453 73.8028 27.6C73.6108 28.144 73.3334 28.6133 72.9708 29.008C72.6081 29.392 72.1708 29.6907 71.6588 29.904C71.1574 30.1173 70.5921 30.224 69.9628 30.224C69.3441 30.224 68.7788 30.1173 68.2668 29.904C67.7654 29.6907 67.3334 29.392 66.9708 29.008C66.6081 28.6133 66.3254 28.144 66.1228 27.6C65.9201 27.0453 65.8188 26.4373 65.8188 25.776C65.8188 25.1147 65.9201 24.512 66.1228 23.968C66.3361 23.424 66.6241 22.96 66.9868 22.576C67.3601 22.192 67.7974 21.8933 68.2988 21.68C68.8108 21.4667 69.3654 21.36 69.9628 21.36C70.5708 21.36 71.1254 21.4667 71.6268 21.68C72.1388 21.8933 72.5761 22.192 72.9388 22.576C73.3014 22.96 73.5841 23.424 73.7868 23.968C73.9894 24.512 74.0908 25.1147 74.0908 25.776ZM71.6588 25.776C71.6588 25.04 71.5094 24.464 71.2108 24.048C70.9228 23.6213 70.5068 23.408 69.9628 23.408C69.4188 23.408 68.9974 23.6213 68.6988 24.048C68.4001 24.464 68.2508 25.04 68.2508 25.776C68.2508 26.512 68.4001 27.0987 68.6988 27.536C68.9974 27.9627 69.4188 28.176 69.9628 28.176C70.5068 28.176 70.9228 27.9627 71.2108 27.536C71.5094 27.0987 71.6588 26.512 71.6588 25.776ZM80.4015 25.536C80.4015 24.768 80.3002 24.224 80.0975 23.904C79.9055 23.584 79.5695 23.424 79.0895 23.424C78.9402 23.424 78.7855 23.4347 78.6255 23.456C78.4655 23.4667 78.3108 23.4827 78.1615 23.504V30H75.7775V21.872C75.9802 21.8187 76.2148 21.7653 76.4815 21.712C76.7588 21.648 77.0468 21.5947 77.3455 21.552C77.6548 21.4987 77.9695 21.4613 78.2895 21.44C78.6095 21.408 78.9242 21.392 79.2335 21.392C79.8415 21.392 80.3322 21.472 80.7055 21.632C81.0895 21.7813 81.4042 21.9627 81.6495 22.176C81.9908 21.9307 82.3802 21.7387 82.8175 21.6C83.2655 21.4613 83.6762 21.392 84.0495 21.392C84.7215 21.392 85.2708 21.488 85.6975 21.68C86.1348 21.8613 86.4815 22.1227 86.7375 22.464C86.9935 22.8053 87.1695 23.2107 87.2655 23.68C87.3615 24.1493 87.4095 24.672 87.4095 25.248V30H85.0255V25.536C85.0255 24.768 84.9242 24.224 84.7215 23.904C84.5295 23.584 84.1935 23.424 83.7135 23.424C83.5855 23.424 83.4042 23.456 83.1695 23.52C82.9455 23.584 82.7588 23.664 82.6095 23.76C82.6842 24.0053 82.7322 24.2667 82.7535 24.544C82.7748 24.8107 82.7855 25.0987 82.7855 25.408V30H80.4015V25.536Z" fill="#0669DE"></path><path d="M119.754 25.66C119.754 26.9517 120.275 27.5975 121.319 27.5975C121.557 27.5975 121.779 27.5665 121.986 27.5045C122.192 27.4425 122.368 27.3702 122.513 27.2875V23.5985C122.399 23.5778 122.265 23.5623 122.11 23.552C121.955 23.5313 121.774 23.521 121.567 23.521C120.957 23.521 120.503 23.7225 120.203 24.1255C119.903 24.5285 119.754 25.04 119.754 25.66ZM124.822 28.977C124.822 30.31 124.481 31.2968 123.799 31.9375C123.127 32.5885 122.084 32.914 120.668 32.914C120.172 32.914 119.676 32.8675 119.18 32.7745C118.684 32.6918 118.224 32.5782 117.801 32.4335L118.204 30.496C118.565 30.6407 118.942 30.7543 119.335 30.837C119.738 30.9197 120.193 30.961 120.699 30.961C121.36 30.961 121.825 30.8163 122.094 30.527C122.373 30.2377 122.513 29.8657 122.513 29.411V29.1165C122.265 29.2302 122.006 29.318 121.738 29.38C121.479 29.4317 121.195 29.4575 120.885 29.4575C119.759 29.4575 118.896 29.1268 118.297 28.4655C117.697 27.7938 117.398 26.8587 117.398 25.66C117.398 25.0607 117.491 24.5182 117.677 24.0325C117.863 23.5365 118.131 23.1128 118.483 22.7615C118.844 22.4102 119.283 22.1415 119.8 21.9555C120.317 21.7592 120.901 21.661 121.552 21.661C121.831 21.661 122.115 21.6765 122.404 21.7075C122.704 21.7282 122.998 21.7592 123.288 21.8005C123.577 21.8418 123.851 21.8935 124.109 21.9555C124.378 22.0072 124.615 22.064 124.822 22.126V28.977ZM126.828 21.4905C127.128 21.3665 127.438 21.227 127.758 21.072C128.089 20.9067 128.409 20.731 128.719 20.545C129.029 20.3487 129.324 20.1472 129.603 19.9405C129.892 19.7235 130.15 19.4962 130.378 19.2585H131.99V30H129.68V22.2655C129.37 22.4722 129.024 22.6633 128.642 22.839C128.259 23.0043 127.887 23.149 127.526 23.273L126.828 21.4905Z" fill="#C4170C"></path><path d="M159.622 25.52C159.622 26.8533 160.161 27.52 161.238 27.52C161.483 27.52 161.713 27.488 161.926 27.424C162.139 27.36 162.321 27.2853 162.47 27.2V23.392C162.353 23.3707 162.214 23.3547 162.054 23.344C161.894 23.3227 161.707 23.312 161.494 23.312C160.865 23.312 160.395 23.52 160.086 23.936C159.777 24.352 159.622 24.88 159.622 25.52ZM164.854 28.944C164.854 30.32 164.502 31.3387 163.798 32C163.105 32.672 162.027 33.008 160.566 33.008C160.054 33.008 159.542 32.96 159.03 32.864C158.518 32.7787 158.043 32.6613 157.606 32.512L158.022 30.512C158.395 30.6613 158.785 30.7787 159.19 30.864C159.606 30.9493 160.075 30.992 160.598 30.992C161.281 30.992 161.761 30.8427 162.038 30.544C162.326 30.2453 162.47 29.8613 162.47 29.392V29.088C162.214 29.2053 161.947 29.296 161.67 29.36C161.403 29.4133 161.11 29.44 160.79 29.44C159.627 29.44 158.737 29.0987 158.118 28.416C157.499 27.7227 157.19 26.7573 157.19 25.52C157.19 24.9013 157.286 24.3413 157.478 23.84C157.67 23.328 157.947 22.8907 158.31 22.528C158.683 22.1653 159.137 21.888 159.67 21.696C160.203 21.4933 160.806 21.392 161.478 21.392C161.766 21.392 162.059 21.408 162.358 21.44C162.667 21.4613 162.971 21.4933 163.27 21.536C163.569 21.5787 163.851 21.632 164.118 21.696C164.395 21.7493 164.641 21.808 164.854 21.872V28.944ZM166.53 25.856C166.53 25.1093 166.642 24.4587 166.866 23.904C167.101 23.3387 167.405 22.8693 167.778 22.496C168.151 22.1227 168.578 21.84 169.058 21.648C169.549 21.456 170.05 21.36 170.562 21.36C171.757 21.36 172.701 21.728 173.394 22.464C174.087 23.1893 174.434 24.2613 174.434 25.68C174.434 25.8187 174.429 25.9733 174.418 26.144C174.407 26.304 174.397 26.448 174.386 26.576H168.978C169.031 27.0667 169.261 27.456 169.666 27.744C170.071 28.032 170.615 28.176 171.298 28.176C171.735 28.176 172.162 28.1387 172.578 28.064C173.005 27.9787 173.351 27.8773 173.618 27.76L173.938 29.696C173.81 29.76 173.639 29.824 173.426 29.888C173.213 29.952 172.973 30.0053 172.706 30.048C172.45 30.1013 172.173 30.144 171.874 30.176C171.575 30.208 171.277 30.224 170.978 30.224C170.221 30.224 169.559 30.112 168.994 29.888C168.439 29.664 167.975 29.36 167.602 28.976C167.239 28.5813 166.967 28.1173 166.786 27.584C166.615 27.0507 166.53 26.4747 166.53 25.856ZM172.13 24.944C172.119 24.7413 172.082 24.544 172.018 24.352C171.965 24.16 171.874 23.9893 171.746 23.84C171.629 23.6907 171.474 23.568 171.282 23.472C171.101 23.376 170.871 23.328 170.594 23.328C170.327 23.328 170.098 23.376 169.906 23.472C169.714 23.5573 169.554 23.6747 169.426 23.824C169.298 23.9733 169.197 24.1493 169.122 24.352C169.058 24.544 169.01 24.7413 168.978 24.944H172.13Z" fill="#06AA48"></path><path d="M201.842 25.52C201.842 26.8533 202.381 27.52 203.458 27.52C203.703 27.52 203.933 27.488 204.146 27.424C204.359 27.36 204.541 27.2853 204.69 27.2V23.392C204.573 23.3707 204.434 23.3547 204.274 23.344C204.114 23.3227 203.927 23.312 203.714 23.312C203.085 23.312 202.615 23.52 202.306 23.936C201.997 24.352 201.842 24.88 201.842 25.52ZM207.074 28.944C207.074 30.32 206.722 31.3387 206.018 32C205.325 32.672 204.247 33.008 202.786 33.008C202.274 33.008 201.762 32.96 201.25 32.864C200.738 32.7787 200.263 32.6613 199.826 32.512L200.242 30.512C200.615 30.6613 201.005 30.7787 201.41 30.864C201.826 30.9493 202.295 30.992 202.818 30.992C203.501 30.992 203.981 30.8427 204.258 30.544C204.546 30.2453 204.69 29.8613 204.69 29.392V29.088C204.434 29.2053 204.167 29.296 203.89 29.36C203.623 29.4133 203.33 29.44 203.01 29.44C201.847 29.44 200.957 29.0987 200.338 28.416C199.719 27.7227 199.41 26.7573 199.41 25.52C199.41 24.9013 199.506 24.3413 199.698 23.84C199.89 23.328 200.167 22.8907 200.53 22.528C200.903 22.1653 201.357 21.888 201.89 21.696C202.423 21.4933 203.026 21.392 203.698 21.392C203.986 21.392 204.279 21.408 204.578 21.44C204.887 21.4613 205.191 21.4933 205.49 21.536C205.789 21.5787 206.071 21.632 206.338 21.696C206.615 21.7493 206.861 21.808 207.074 21.872V28.944ZM211.566 28.288C212.003 28.288 212.313 28.2453 212.494 28.16C212.675 28.0747 212.766 27.9093 212.766 27.664C212.766 27.472 212.649 27.3067 212.414 27.168C212.179 27.0187 211.822 26.8533 211.342 26.672C210.969 26.5333 210.627 26.3893 210.318 26.24C210.019 26.0907 209.763 25.9147 209.55 25.712C209.337 25.4987 209.171 25.248 209.054 24.96C208.937 24.672 208.878 24.3253 208.878 23.92C208.878 23.1307 209.171 22.5067 209.758 22.048C210.345 21.5893 211.15 21.36 212.174 21.36C212.686 21.36 213.177 21.408 213.646 21.504C214.115 21.5893 214.489 21.6853 214.766 21.792L214.35 23.648C214.073 23.552 213.769 23.4667 213.438 23.392C213.118 23.3173 212.755 23.28 212.35 23.28C211.603 23.28 211.23 23.488 211.23 23.904C211.23 24 211.246 24.0853 211.278 24.16C211.31 24.2347 211.374 24.3093 211.47 24.384C211.566 24.448 211.694 24.5227 211.854 24.608C212.025 24.6827 212.238 24.768 212.494 24.864C213.017 25.056 213.449 25.248 213.79 25.44C214.131 25.6213 214.398 25.824 214.59 26.048C214.793 26.2613 214.931 26.5013 215.006 26.768C215.091 27.0347 215.134 27.344 215.134 27.696C215.134 28.528 214.819 29.1573 214.19 29.584C213.571 30.0107 212.691 30.224 211.55 30.224C210.803 30.224 210.179 30.16 209.678 30.032C209.187 29.904 208.846 29.7973 208.654 29.712L209.054 27.776C209.459 27.936 209.875 28.064 210.302 28.16C210.729 28.2453 211.15 28.288 211.566 28.288ZM216.756 30V17.968L219.14 17.584V21.616C219.3 21.5627 219.502 21.5147 219.748 21.472C220.004 21.4187 220.249 21.392 220.484 21.392C221.166 21.392 221.732 21.488 222.18 21.68C222.638 21.8613 223.001 22.1227 223.268 22.464C223.545 22.8053 223.737 23.2107 223.844 23.68C223.961 24.1493 224.02 24.672 224.02 25.248V30H221.636V25.536C221.636 24.768 221.534 24.224 221.332 23.904C221.14 23.584 220.777 23.424 220.244 23.424C220.03 23.424 219.828 23.4453 219.636 23.488C219.454 23.52 219.289 23.5573 219.14 23.6V30H216.756ZM233.89 25.776C233.89 26.4373 233.794 27.0453 233.602 27.6C233.41 28.144 233.132 28.6133 232.77 29.008C232.407 29.392 231.97 29.6907 231.458 29.904C230.956 30.1173 230.391 30.224 229.762 30.224C229.143 30.224 228.578 30.1173 228.066 29.904C227.564 29.6907 227.132 29.392 226.77 29.008C226.407 28.6133 226.124 28.144 225.922 27.6C225.719 27.0453 225.618 26.4373 225.618 25.776C225.618 25.1147 225.719 24.512 225.922 23.968C226.135 23.424 226.423 22.96 226.786 22.576C227.159 22.192 227.596 21.8933 228.098 21.68C228.61 21.4667 229.164 21.36 229.762 21.36C230.37 21.36 230.924 21.4667 231.426 21.68C231.938 21.8933 232.375 22.192 232.738 22.576C233.1 22.96 233.383 23.424 233.586 23.968C233.788 24.512 233.89 25.1147 233.89 25.776ZM231.458 25.776C231.458 25.04 231.308 24.464 231.01 24.048C230.722 23.6213 230.306 23.408 229.762 23.408C229.218 23.408 228.796 23.6213 228.498 24.048C228.199 24.464 228.05 25.04 228.05 25.776C228.05 26.512 228.199 27.0987 228.498 27.536C228.796 27.9627 229.218 28.176 229.762 28.176C230.306 28.176 230.722 27.9627 231.01 27.536C231.308 27.0987 231.458 26.512 231.458 25.776ZM240.509 25.168C240.295 25.9787 240.066 26.784 239.821 27.584C239.586 28.384 239.335 29.1893 239.069 30H237.213C237.021 29.552 236.813 29.0187 236.589 28.4C236.365 27.7813 236.13 27.1093 235.885 26.384C235.65 25.648 235.405 24.8747 235.149 24.064C234.903 23.2427 234.663 22.416 234.429 21.584H236.941C237.026 21.968 237.117 22.3893 237.213 22.848C237.319 23.296 237.426 23.76 237.533 24.24C237.65 24.72 237.767 25.2053 237.885 25.696C238.013 26.176 238.141 26.64 238.269 27.088C238.407 26.6187 238.541 26.1387 238.669 25.648C238.807 25.1573 238.935 24.6773 239.053 24.208C239.181 23.728 239.298 23.2693 239.405 22.832C239.522 22.384 239.623 21.968 239.709 21.584H241.437C241.522 21.968 241.618 22.384 241.725 22.832C241.831 23.2693 241.943 23.728 242.061 24.208C242.178 24.6773 242.301 25.1573 242.429 25.648C242.557 26.1387 242.69 26.6187 242.829 27.088C242.957 26.64 243.085 26.176 243.213 25.696C243.341 25.2053 243.458 24.72 243.565 24.24C243.682 23.76 243.789 23.296 243.885 22.848C243.991 22.3893 244.087 21.968 244.173 21.584H246.653C246.418 22.416 246.173 23.2427 245.917 24.064C245.671 24.8747 245.426 25.648 245.181 26.384C244.946 27.1093 244.711 27.7813 244.477 28.4C244.253 29.0187 244.045 29.552 243.853 30H241.997C241.73 29.1893 241.469 28.384 241.213 27.584C240.957 26.784 240.722 25.9787 240.509 25.168Z" fill="#FF6700"></path><path d="M274.812 25.52C274.812 26.8533 275.351 27.52 276.428 27.52C276.673 27.52 276.903 27.488 277.116 27.424C277.329 27.36 277.511 27.2853 277.66 27.2V23.392C277.543 23.3707 277.404 23.3547 277.244 23.344C277.084 23.3227 276.897 23.312 276.684 23.312C276.055 23.312 275.585 23.52 275.276 23.936C274.967 24.352 274.812 24.88 274.812 25.52ZM280.044 28.944C280.044 30.32 279.692 31.3387 278.988 32C278.295 32.672 277.217 33.008 275.756 33.008C275.244 33.008 274.732 32.96 274.22 32.864C273.708 32.7787 273.233 32.6613 272.796 32.512L273.212 30.512C273.585 30.6613 273.975 30.7787 274.38 30.864C274.796 30.9493 275.265 30.992 275.788 30.992C276.471 30.992 276.951 30.8427 277.228 30.544C277.516 30.2453 277.66 29.8613 277.66 29.392V29.088C277.404 29.2053 277.137 29.296 276.86 29.36C276.593 29.4133 276.3 29.44 275.98 29.44C274.817 29.44 273.927 29.0987 273.308 28.416C272.689 27.7227 272.38 26.7573 272.38 25.52C272.38 24.9013 272.476 24.3413 272.668 23.84C272.86 23.328 273.137 22.8907 273.5 22.528C273.873 22.1653 274.327 21.888 274.86 21.696C275.393 21.4933 275.996 21.392 276.668 21.392C276.956 21.392 277.249 21.408 277.548 21.44C277.857 21.4613 278.161 21.4933 278.46 21.536C278.759 21.5787 279.041 21.632 279.308 21.696C279.585 21.7493 279.831 21.808 280.044 21.872V28.944ZM285.48 30.16C284.787 30.1493 284.221 30.0747 283.784 29.936C283.357 29.7973 283.016 29.6053 282.76 29.36C282.515 29.104 282.344 28.8 282.248 28.448C282.163 28.0853 282.12 27.68 282.12 27.232V17.968L284.504 17.584V26.752C284.504 26.9653 284.52 27.1573 284.552 27.328C284.584 27.4987 284.643 27.6427 284.728 27.76C284.824 27.8773 284.957 27.9733 285.128 28.048C285.299 28.1227 285.528 28.1707 285.816 28.192L285.48 30.16ZM294.895 25.776C294.895 26.4373 294.799 27.0453 294.607 27.6C294.415 28.144 294.137 28.6133 293.775 29.008C293.412 29.392 292.975 29.6907 292.463 29.904C291.961 30.1173 291.396 30.224 290.767 30.224C290.148 30.224 289.583 30.1173 289.071 29.904C288.569 29.6907 288.137 29.392 287.775 29.008C287.412 28.6133 287.129 28.144 286.927 27.6C286.724 27.0453 286.623 26.4373 286.623 25.776C286.623 25.1147 286.724 24.512 286.927 23.968C287.14 23.424 287.428 22.96 287.791 22.576C288.164 22.192 288.601 21.8933 289.103 21.68C289.615 21.4667 290.169 21.36 290.767 21.36C291.375 21.36 291.929 21.4667 292.431 21.68C292.943 21.8933 293.38 22.192 293.743 22.576C294.105 22.96 294.388 23.424 294.591 23.968C294.793 24.512 294.895 25.1147 294.895 25.776ZM292.463 25.776C292.463 25.04 292.313 24.464 292.015 24.048C291.727 23.6213 291.311 23.408 290.767 23.408C290.223 23.408 289.801 23.6213 289.503 24.048C289.204 24.464 289.055 25.04 289.055 25.776C289.055 26.512 289.204 27.0987 289.503 27.536C289.801 27.9627 290.223 28.176 290.767 28.176C291.311 28.176 291.727 27.9627 292.015 27.536C292.313 27.0987 292.463 26.512 292.463 25.776ZM301.973 25.728C301.973 24.192 301.408 23.424 300.277 23.424C300.032 23.424 299.787 23.456 299.541 23.52C299.307 23.584 299.115 23.664 298.965 23.76V28.096C299.083 28.1173 299.232 28.1387 299.413 28.16C299.595 28.1707 299.792 28.176 300.005 28.176C300.656 28.176 301.147 27.952 301.477 27.504C301.808 27.056 301.973 26.464 301.973 25.728ZM304.405 25.792C304.405 26.464 304.304 27.072 304.101 27.616C303.909 28.16 303.627 28.624 303.253 29.008C302.88 29.392 302.421 29.6907 301.877 29.904C301.333 30.1067 300.715 30.208 300.021 30.208C299.733 30.208 299.429 30.192 299.109 30.16C298.8 30.1387 298.491 30.1067 298.181 30.064C297.883 30.0213 297.595 29.9733 297.317 29.92C297.04 29.856 296.795 29.792 296.581 29.728V17.968L298.965 17.584V21.776C299.232 21.6587 299.509 21.568 299.797 21.504C300.085 21.44 300.395 21.408 300.725 21.408C301.323 21.408 301.851 21.5147 302.309 21.728C302.768 21.9307 303.152 22.224 303.461 22.608C303.771 22.992 304.005 23.456 304.165 24C304.325 24.5333 304.405 25.1307 304.405 25.792ZM313.95 25.776C313.95 26.4373 313.854 27.0453 313.662 27.6C313.47 28.144 313.192 28.6133 312.83 29.008C312.467 29.392 312.03 29.6907 311.518 29.904C311.016 30.1173 310.451 30.224 309.822 30.224C309.203 30.224 308.638 30.1173 308.126 29.904C307.624 29.6907 307.192 29.392 306.83 29.008C306.467 28.6133 306.184 28.144 305.982 27.6C305.779 27.0453 305.678 26.4373 305.678 25.776C305.678 25.1147 305.779 24.512 305.982 23.968C306.195 23.424 306.483 22.96 306.846 22.576C307.219 22.192 307.656 21.8933 308.158 21.68C308.67 21.4667 309.224 21.36 309.822 21.36C310.43 21.36 310.984 21.4667 311.486 21.68C311.998 21.8933 312.435 22.192 312.798 22.576C313.16 22.96 313.443 23.424 313.646 23.968C313.848 24.512 313.95 25.1147 313.95 25.776ZM311.518 25.776C311.518 25.04 311.368 24.464 311.07 24.048C310.782 23.6213 310.366 23.408 309.822 23.408C309.278 23.408 308.856 23.6213 308.558 24.048C308.259 24.464 308.11 25.04 308.11 25.776C308.11 26.512 308.259 27.0987 308.558 27.536C308.856 27.9627 309.278 28.176 309.822 28.176C310.366 28.176 310.782 27.9627 311.07 27.536C311.368 27.0987 311.518 26.512 311.518 25.776ZM321.028 25.856C321.028 25.12 320.863 24.5333 320.532 24.096C320.202 23.648 319.711 23.424 319.06 23.424C318.847 23.424 318.65 23.4347 318.468 23.456C318.287 23.4667 318.138 23.4827 318.02 23.504V27.808C318.17 27.904 318.362 27.984 318.596 28.048C318.842 28.112 319.087 28.144 319.332 28.144C320.463 28.144 321.028 27.3813 321.028 25.856ZM323.46 25.792C323.46 26.4427 323.38 27.0347 323.22 27.568C323.06 28.1013 322.826 28.56 322.516 28.944C322.207 29.328 321.823 29.6267 321.364 29.84C320.906 30.0533 320.378 30.16 319.78 30.16C319.45 30.16 319.14 30.128 318.852 30.064C318.564 30 318.287 29.9093 318.02 29.792V32.96H315.636V21.872C315.85 21.808 316.095 21.7493 316.372 21.696C316.65 21.632 316.938 21.5787 317.236 21.536C317.546 21.4933 317.855 21.4613 318.164 21.44C318.484 21.408 318.788 21.392 319.076 21.392C319.77 21.392 320.388 21.4987 320.932 21.712C321.476 21.9147 321.935 22.208 322.308 22.592C322.682 22.9653 322.964 23.424 323.156 23.968C323.359 24.512 323.46 25.12 323.46 25.792ZM328.493 30.16C327.799 30.1493 327.234 30.0747 326.797 29.936C326.37 29.7973 326.029 29.6053 325.773 29.36C325.527 29.104 325.357 28.8 325.261 28.448C325.175 28.0853 325.133 27.68 325.133 27.232V17.968L327.517 17.584V26.752C327.517 26.9653 327.533 27.1573 327.565 27.328C327.597 27.4987 327.655 27.6427 327.741 27.76C327.837 27.8773 327.97 27.9733 328.141 28.048C328.311 28.1227 328.541 28.1707 328.829 28.192L328.493 30.16ZM333.485 28.336C333.72 28.336 333.944 28.3307 334.157 28.32C334.371 28.3093 334.541 28.2933 334.669 28.272V26.464C334.573 26.4427 334.429 26.4213 334.237 26.4C334.045 26.3787 333.869 26.368 333.709 26.368C333.485 26.368 333.272 26.384 333.069 26.416C332.877 26.4373 332.707 26.4853 332.557 26.56C332.408 26.6347 332.291 26.736 332.205 26.864C332.12 26.992 332.077 27.152 332.077 27.344C332.077 27.7173 332.2 27.9787 332.445 28.128C332.701 28.2667 333.048 28.336 333.485 28.336ZM333.293 21.36C333.997 21.36 334.584 21.44 335.053 21.6C335.523 21.76 335.896 21.9893 336.173 22.288C336.461 22.5867 336.664 22.9493 336.781 23.376C336.899 23.8027 336.957 24.2773 336.957 24.8V29.76C336.616 29.8347 336.141 29.92 335.533 30.016C334.925 30.1227 334.189 30.176 333.325 30.176C332.781 30.176 332.285 30.128 331.837 30.032C331.4 29.936 331.021 29.7813 330.701 29.568C330.381 29.344 330.136 29.056 329.965 28.704C329.795 28.352 329.709 27.92 329.709 27.408C329.709 26.9173 329.805 26.5013 329.997 26.16C330.2 25.8187 330.467 25.5467 330.797 25.344C331.128 25.1413 331.507 24.9973 331.933 24.912C332.36 24.816 332.803 24.768 333.261 24.768C333.571 24.768 333.843 24.784 334.077 24.816C334.323 24.8373 334.52 24.8693 334.669 24.912V24.688C334.669 24.2827 334.547 23.9573 334.301 23.712C334.056 23.4667 333.629 23.344 333.021 23.344C332.616 23.344 332.216 23.376 331.821 23.44C331.427 23.4933 331.085 23.5733 330.797 23.68L330.493 21.76C330.632 21.7173 330.803 21.6747 331.005 21.632C331.219 21.5787 331.448 21.536 331.693 21.504C331.939 21.4613 332.195 21.4293 332.461 21.408C332.739 21.376 333.016 21.36 333.293 21.36ZM346.222 21.584C345.742 23.2053 345.241 24.7253 344.718 26.144C344.195 27.5627 343.625 28.9387 343.006 30.272C342.782 30.752 342.558 31.1573 342.334 31.488C342.11 31.8293 341.865 32.1067 341.598 32.32C341.331 32.544 341.027 32.704 340.686 32.8C340.355 32.9067 339.966 32.96 339.518 32.96C339.145 32.96 338.798 32.9227 338.478 32.848C338.169 32.784 337.913 32.7093 337.71 32.624L338.126 30.72C338.371 30.8053 338.59 30.864 338.782 30.896C338.974 30.928 339.177 30.944 339.39 30.944C339.817 30.944 340.142 30.8267 340.366 30.592C340.601 30.368 340.798 30.0533 340.958 29.648C340.414 28.5813 339.87 27.3867 339.326 26.064C338.782 24.7307 338.27 23.2373 337.79 21.584H340.318C340.425 22 340.547 22.4533 340.686 22.944C340.835 23.424 340.99 23.9147 341.15 24.416C341.31 24.9067 341.47 25.3867 341.63 25.856C341.801 26.3253 341.961 26.752 342.11 27.136C342.249 26.752 342.393 26.3253 342.542 25.856C342.691 25.3867 342.835 24.9067 342.974 24.416C343.123 23.9147 343.262 23.424 343.39 22.944C343.529 22.4533 343.651 22 343.758 21.584H346.222Z" fill="#FB0334"></path><path d="M385.582 25.776C385.582 26.4373 385.486 27.0453 385.294 27.6C385.102 28.144 384.825 28.6133 384.462 29.008C384.099 29.392 383.662 29.6907 383.15 29.904C382.649 30.1173 382.083 30.224 381.454 30.224C380.835 30.224 380.27 30.1173 379.758 29.904C379.257 29.6907 378.825 29.392 378.462 29.008C378.099 28.6133 377.817 28.144 377.614 27.6C377.411 27.0453 377.31 26.4373 377.31 25.776C377.31 25.1147 377.411 24.512 377.614 23.968C377.827 23.424 378.115 22.96 378.478 22.576C378.851 22.192 379.289 21.8933 379.79 21.68C380.302 21.4667 380.857 21.36 381.454 21.36C382.062 21.36 382.617 21.4667 383.118 21.68C383.63 21.8933 384.067 22.192 384.43 22.576C384.793 22.96 385.075 23.424 385.278 23.968C385.481 24.512 385.582 25.1147 385.582 25.776ZM383.15 25.776C383.15 25.04 383.001 24.464 382.702 24.048C382.414 23.6213 381.998 23.408 381.454 23.408C380.91 23.408 380.489 23.6213 380.19 24.048C379.891 24.464 379.742 25.04 379.742 25.776C379.742 26.512 379.891 27.0987 380.19 27.536C380.489 27.9627 380.91 28.176 381.454 28.176C381.998 28.176 382.414 27.9627 382.702 27.536C383.001 27.0987 383.15 26.512 383.15 25.776ZM392.984 25.52C392.984 26.8533 393.523 27.52 394.6 27.52C394.846 27.52 395.075 27.488 395.288 27.424C395.502 27.36 395.683 27.2853 395.832 27.2V23.392C395.715 23.3707 395.576 23.3547 395.416 23.344C395.256 23.3227 395.07 23.312 394.856 23.312C394.227 23.312 393.758 23.52 393.448 23.936C393.139 24.352 392.984 24.88 392.984 25.52ZM398.216 28.944C398.216 30.32 397.864 31.3387 397.16 32C396.467 32.672 395.39 33.008 393.928 33.008C393.416 33.008 392.904 32.96 392.392 32.864C391.88 32.7787 391.406 32.6613 390.968 32.512L391.384 30.512C391.758 30.6613 392.147 30.7787 392.552 30.864C392.968 30.9493 393.438 30.992 393.96 30.992C394.643 30.992 395.123 30.8427 395.4 30.544C395.688 30.2453 395.832 29.8613 395.832 29.392V29.088C395.576 29.2053 395.31 29.296 395.032 29.36C394.766 29.4133 394.472 29.44 394.152 29.44C392.99 29.44 392.099 29.0987 391.48 28.416C390.862 27.7227 390.552 26.7573 390.552 25.52C390.552 24.9013 390.648 24.3413 390.84 23.84C391.032 23.328 391.31 22.8907 391.672 22.528C392.046 22.1653 392.499 21.888 393.032 21.696C393.566 21.4933 394.168 21.392 394.84 21.392C395.128 21.392 395.422 21.408 395.72 21.44C396.03 21.4613 396.334 21.4933 396.632 21.536C396.931 21.5787 397.214 21.632 397.48 21.696C397.758 21.7493 398.003 21.808 398.216 21.872V28.944ZM403.652 30.16C402.959 30.1493 402.394 30.0747 401.956 29.936C401.53 29.7973 401.188 29.6053 400.932 29.36C400.687 29.104 400.516 28.8 400.42 28.448C400.335 28.0853 400.292 27.68 400.292 27.232V17.968L402.676 17.584V26.752C402.676 26.9653 402.692 27.1573 402.724 27.328C402.756 27.4987 402.815 27.6427 402.9 27.76C402.996 27.8773 403.13 27.9733 403.3 28.048C403.471 28.1227 403.7 28.1707 403.988 28.192L403.652 30.16ZM413.067 25.776C413.067 26.4373 412.971 27.0453 412.779 27.6C412.587 28.144 412.31 28.6133 411.947 29.008C411.584 29.392 411.147 29.6907 410.635 29.904C410.134 30.1173 409.568 30.224 408.939 30.224C408.32 30.224 407.755 30.1173 407.243 29.904C406.742 29.6907 406.31 29.392 405.947 29.008C405.584 28.6133 405.302 28.144 405.099 27.6C404.896 27.0453 404.795 26.4373 404.795 25.776C404.795 25.1147 404.896 24.512 405.099 23.968C405.312 23.424 405.6 22.96 405.963 22.576C406.336 22.192 406.774 21.8933 407.275 21.68C407.787 21.4667 408.342 21.36 408.939 21.36C409.547 21.36 410.102 21.4667 410.603 21.68C411.115 21.8933 411.552 22.192 411.915 22.576C412.278 22.96 412.56 23.424 412.763 23.968C412.966 24.512 413.067 25.1147 413.067 25.776ZM410.635 25.776C410.635 25.04 410.486 24.464 410.187 24.048C409.899 23.6213 409.483 23.408 408.939 23.408C408.395 23.408 407.974 23.6213 407.675 24.048C407.376 24.464 407.227 25.04 407.227 25.776C407.227 26.512 407.376 27.0987 407.675 27.536C407.974 27.9627 408.395 28.176 408.939 28.176C409.483 28.176 409.899 27.9627 410.187 27.536C410.486 27.0987 410.635 26.512 410.635 25.776ZM420.146 25.728C420.146 24.192 419.58 23.424 418.45 23.424C418.204 23.424 417.959 23.456 417.714 23.52C417.479 23.584 417.287 23.664 417.138 23.76V28.096C417.255 28.1173 417.404 28.1387 417.586 28.16C417.767 28.1707 417.964 28.176 418.178 28.176C418.828 28.176 419.319 27.952 419.65 27.504C419.98 27.056 420.146 26.464 420.146 25.728ZM422.578 25.792C422.578 26.464 422.476 27.072 422.274 27.616C422.082 28.16 421.799 28.624 421.426 29.008C421.052 29.392 420.594 29.6907 420.05 29.904C419.506 30.1067 418.887 30.208 418.194 30.208C417.906 30.208 417.602 30.192 417.282 30.16C416.972 30.1387 416.663 30.1067 416.354 30.064C416.055 30.0213 415.767 29.9733 415.49 29.92C415.212 29.856 414.967 29.792 414.754 29.728V17.968L417.138 17.584V21.776C417.404 21.6587 417.682 21.568 417.97 21.504C418.258 21.44 418.567 21.408 418.898 21.408C419.495 21.408 420.023 21.5147 420.482 21.728C420.94 21.9307 421.324 22.224 421.634 22.608C421.943 22.992 422.178 23.456 422.338 24C422.498 24.5333 422.578 25.1307 422.578 25.792ZM432.122 25.776C432.122 26.4373 432.026 27.0453 431.834 27.6C431.642 28.144 431.365 28.6133 431.002 29.008C430.639 29.392 430.202 29.6907 429.69 29.904C429.189 30.1173 428.623 30.224 427.994 30.224C427.375 30.224 426.81 30.1173 426.298 29.904C425.797 29.6907 425.365 29.392 425.002 29.008C424.639 28.6133 424.357 28.144 424.154 27.6C423.951 27.0453 423.85 26.4373 423.85 25.776C423.85 25.1147 423.951 24.512 424.154 23.968C424.367 23.424 424.655 22.96 425.018 22.576C425.391 22.192 425.829 21.8933 426.33 21.68C426.842 21.4667 427.397 21.36 427.994 21.36C428.602 21.36 429.157 21.4667 429.658 21.68C430.17 21.8933 430.607 22.192 430.97 22.576C431.333 22.96 431.615 23.424 431.818 23.968C432.021 24.512 432.122 25.1147 432.122 25.776ZM429.69 25.776C429.69 25.04 429.541 24.464 429.242 24.048C428.954 23.6213 428.538 23.408 427.994 23.408C427.45 23.408 427.029 23.6213 426.73 24.048C426.431 24.464 426.282 25.04 426.282 25.776C426.282 26.512 426.431 27.0987 426.73 27.536C427.029 27.9627 427.45 28.176 427.994 28.176C428.538 28.176 428.954 27.9627 429.242 27.536C429.541 27.0987 429.69 26.512 429.69 25.776Z" fill="#1E4C9A"></path></g><defs><clipPath id="clip0_11_52"><rect width="390" height="48" fill="white"></rect></clipPath></defs></svg>