<svg xmlns="http://www.w3.org/2000/svg" width="1440" height="48" viewBox="0 0 1440 48" fill="none"><rect width="1440" height="48" fill="white"></rect><rect width="1360" height="48" transform="translate(40)" fill="white"></rect><path d="M55.152 25.52C55.152 26.8533 55.6907 27.52 56.768 27.52C57.0133 27.52 57.2427 27.488 57.456 27.424C57.6693 27.36 57.8507 27.2853 58 27.2V23.392C57.8827 23.3707 57.744 23.3547 57.584 23.344C57.424 23.3227 57.2373 23.312 57.024 23.312C56.3947 23.312 55.9253 23.52 55.616 23.936C55.3067 24.352 55.152 24.88 55.152 25.52ZM60.384 28.944C60.384 30.32 60.032 31.3387 59.328 32C58.6347 32.672 57.5573 33.008 56.096 33.008C55.584 33.008 55.072 32.96 54.56 32.864C54.048 32.7787 53.5733 32.6613 53.136 32.512L53.552 30.512C53.9253 30.6613 54.3147 30.7787 54.72 30.864C55.136 30.9493 55.6053 30.992 56.128 30.992C56.8107 30.992 57.2907 30.8427 57.568 30.544C57.856 30.2453 58 29.8613 58 29.392V29.088C57.744 29.2053 57.4773 29.296 57.2 29.36C56.9333 29.4133 56.64 29.44 56.32 29.44C55.1573 29.44 54.2667 29.0987 53.648 28.416C53.0293 27.7227 52.72 26.7573 52.72 25.52C52.72 24.9013 52.816 24.3413 53.008 23.84C53.2 23.328 53.4773 22.8907 53.84 22.528C54.2133 22.1653 54.6667 21.888 55.2 21.696C55.7333 21.4933 56.336 21.392 57.008 21.392C57.296 21.392 57.5893 21.408 57.888 21.44C58.1973 21.4613 58.5013 21.4933 58.8 21.536C59.0987 21.5787 59.3813 21.632 59.648 21.696C59.9253 21.7493 60.1707 21.808 60.384 21.872V28.944ZM65.82 30.16C65.1267 30.1493 64.5613 30.0747 64.124 29.936C63.6973 29.7973 63.356 29.6053 63.1 29.36C62.8547 29.104 62.684 28.8 62.588 28.448C62.5027 28.0853 62.46 27.68 62.46 27.232V17.968L64.844 17.584V26.752C64.844 26.9653 64.86 27.1573 64.892 27.328C64.924 27.4987 64.9827 27.6427 65.068 27.76C65.164 27.8773 65.2973 27.9733 65.468 28.048C65.6387 28.1227 65.868 28.1707 66.156 28.192L65.82 30.16ZM75.2345 25.776C75.2345 26.4373 75.1385 27.0453 74.9465 27.6C74.7545 28.144 74.4772 28.6133 74.1145 29.008C73.7518 29.392 73.3145 29.6907 72.8025 29.904C72.3012 30.1173 71.7358 30.224 71.1065 30.224C70.4878 30.224 69.9225 30.1173 69.4105 29.904C68.9092 29.6907 68.4772 29.392 68.1145 29.008C67.7518 28.6133 67.4692 28.144 67.2665 27.6C67.0638 27.0453 66.9625 26.4373 66.9625 25.776C66.9625 25.1147 67.0638 24.512 67.2665 23.968C67.4798 23.424 67.7678 22.96 68.1305 22.576C68.5038 22.192 68.9412 21.8933 69.4425 21.68C69.9545 21.4667 70.5092 21.36 71.1065 21.36C71.7145 21.36 72.2692 21.4667 72.7705 21.68C73.2825 21.8933 73.7198 22.192 74.0825 22.576C74.4452 22.96 74.7278 23.424 74.9305 23.968C75.1332 24.512 75.2345 25.1147 75.2345 25.776ZM72.8025 25.776C72.8025 25.04 72.6532 24.464 72.3545 24.048C72.0665 23.6213 71.6505 23.408 71.1065 23.408C70.5625 23.408 70.1412 23.6213 69.8425 24.048C69.5438 24.464 69.3945 25.04 69.3945 25.776C69.3945 26.512 69.5438 27.0987 69.8425 27.536C70.1412 27.9627 70.5625 28.176 71.1065 28.176C71.6505 28.176 72.0665 27.9627 72.3545 27.536C72.6532 27.0987 72.8025 26.512 72.8025 25.776ZM82.3133 25.728C82.3133 24.192 81.7479 23.424 80.6173 23.424C80.3719 23.424 80.1266 23.456 79.8813 23.52C79.6466 23.584 79.4546 23.664 79.3053 23.76V28.096C79.4226 28.1173 79.5719 28.1387 79.7533 28.16C79.9346 28.1707 80.1319 28.176 80.3453 28.176C80.9959 28.176 81.4866 27.952 81.8173 27.504C82.1479 27.056 82.3133 26.464 82.3133 25.728ZM84.7453 25.792C84.7453 26.464 84.6439 27.072 84.4413 27.616C84.2493 28.16 83.9666 28.624 83.5933 29.008C83.2199 29.392 82.7613 29.6907 82.2173 29.904C81.6733 30.1067 81.0546 30.208 80.3613 30.208C80.0733 30.208 79.7693 30.192 79.4493 30.16C79.1399 30.1387 78.8306 30.1067 78.5213 30.064C78.2226 30.0213 77.9346 29.9733 77.6573 29.92C77.3799 29.856 77.1346 29.792 76.9213 29.728V17.968L79.3053 17.584V21.776C79.5719 21.6587 79.8493 21.568 80.1373 21.504C80.4253 21.44 80.7346 21.408 81.0653 21.408C81.6626 21.408 82.1906 21.5147 82.6493 21.728C83.1079 21.9307 83.4919 22.224 83.8013 22.608C84.1106 22.992 84.3453 23.456 84.5053 24C84.6653 24.5333 84.7453 25.1307 84.7453 25.792ZM94.2895 25.776C94.2895 26.4373 94.1935 27.0453 94.0015 27.6C93.8095 28.144 93.5322 28.6133 93.1695 29.008C92.8068 29.392 92.3695 29.6907 91.8575 29.904C91.3562 30.1173 90.7908 30.224 90.1615 30.224C89.5428 30.224 88.9775 30.1173 88.4655 29.904C87.9642 29.6907 87.5322 29.392 87.1695 29.008C86.8068 28.6133 86.5242 28.144 86.3215 27.6C86.1188 27.0453 86.0175 26.4373 86.0175 25.776C86.0175 25.1147 86.1188 24.512 86.3215 23.968C86.5348 23.424 86.8228 22.96 87.1855 22.576C87.5588 22.192 87.9962 21.8933 88.4975 21.68C89.0095 21.4667 89.5642 21.36 90.1615 21.36C90.7695 21.36 91.3242 21.4667 91.8255 21.68C92.3375 21.8933 92.7748 22.192 93.1375 22.576C93.5002 22.96 93.7828 23.424 93.9855 23.968C94.1882 24.512 94.2895 25.1147 94.2895 25.776ZM91.8575 25.776C91.8575 25.04 91.7082 24.464 91.4095 24.048C91.1215 23.6213 90.7055 23.408 90.1615 23.408C89.6175 23.408 89.1962 23.6213 88.8975 24.048C88.5988 24.464 88.4495 25.04 88.4495 25.776C88.4495 26.512 88.5988 27.0987 88.8975 27.536C89.1962 27.9627 89.6175 28.176 90.1615 28.176C90.7055 28.176 91.1215 27.9627 91.4095 27.536C91.7082 27.0987 91.8575 26.512 91.8575 25.776ZM97.8279 28.736C97.8279 29.216 97.6732 29.584 97.3639 29.84C97.0652 30.0853 96.7239 30.208 96.3399 30.208C95.9559 30.208 95.6092 30.0853 95.2999 29.84C95.0012 29.584 94.8519 29.216 94.8519 28.736C94.8519 28.256 95.0012 27.8933 95.2999 27.648C95.6092 27.392 95.9559 27.264 96.3399 27.264C96.7239 27.264 97.0652 27.392 97.3639 27.648C97.6732 27.8933 97.8279 28.256 97.8279 28.736ZM98.385 25.792C98.385 25.184 98.481 24.6133 98.673 24.08C98.8757 23.536 99.1637 23.0667 99.537 22.672C99.9103 22.2667 100.364 21.9467 100.897 21.712C101.43 21.4773 102.038 21.36 102.721 21.36C103.169 21.36 103.58 21.4027 103.953 21.488C104.326 21.5627 104.689 21.6747 105.041 21.824L104.545 23.728C104.321 23.6427 104.076 23.568 103.809 23.504C103.542 23.44 103.244 23.408 102.913 23.408C102.209 23.408 101.681 23.6267 101.329 24.064C100.988 24.5013 100.817 25.0773 100.817 25.792C100.817 26.5493 100.977 27.136 101.297 27.552C101.628 27.968 102.198 28.176 103.009 28.176C103.297 28.176 103.606 28.1493 103.937 28.096C104.268 28.0427 104.572 27.9573 104.849 27.84L105.185 29.792C104.908 29.9093 104.561 30.0107 104.145 30.096C103.729 30.1813 103.27 30.224 102.769 30.224C102.001 30.224 101.34 30.112 100.785 29.888C100.23 29.6533 99.7717 29.3387 99.409 28.944C99.057 28.5493 98.7957 28.0853 98.625 27.552C98.465 27.008 98.385 26.4213 98.385 25.792ZM114.091 25.776C114.091 26.4373 113.995 27.0453 113.803 27.6C113.611 28.144 113.333 28.6133 112.971 29.008C112.608 29.392 112.171 29.6907 111.659 29.904C111.157 30.1173 110.592 30.224 109.963 30.224C109.344 30.224 108.779 30.1173 108.267 29.904C107.765 29.6907 107.333 29.392 106.971 29.008C106.608 28.6133 106.325 28.144 106.123 27.6C105.92 27.0453 105.819 26.4373 105.819 25.776C105.819 25.1147 105.92 24.512 106.123 23.968C106.336 23.424 106.624 22.96 106.987 22.576C107.36 22.192 107.797 21.8933 108.299 21.68C108.811 21.4667 109.365 21.36 109.963 21.36C110.571 21.36 111.125 21.4667 111.627 21.68C112.139 21.8933 112.576 22.192 112.939 22.576C113.301 22.96 113.584 23.424 113.787 23.968C113.989 24.512 114.091 25.1147 114.091 25.776ZM111.659 25.776C111.659 25.04 111.509 24.464 111.211 24.048C110.923 23.6213 110.507 23.408 109.963 23.408C109.419 23.408 108.997 23.6213 108.699 24.048C108.4 24.464 108.251 25.04 108.251 25.776C108.251 26.512 108.4 27.0987 108.699 27.536C108.997 27.9627 109.419 28.176 109.963 28.176C110.507 28.176 110.923 27.9627 111.211 27.536C111.509 27.0987 111.659 26.512 111.659 25.776ZM120.402 25.536C120.402 24.768 120.3 24.224 120.098 23.904C119.906 23.584 119.57 23.424 119.09 23.424C118.94 23.424 118.786 23.4347 118.626 23.456C118.466 23.4667 118.311 23.4827 118.162 23.504V30H115.778V21.872C115.98 21.8187 116.215 21.7653 116.482 21.712C116.759 21.648 117.047 21.5947 117.346 21.552C117.655 21.4987 117.97 21.4613 118.29 21.44C118.61 21.408 118.924 21.392 119.234 21.392C119.842 21.392 120.332 21.472 120.706 21.632C121.09 21.7813 121.404 21.9627 121.65 22.176C121.991 21.9307 122.38 21.7387 122.818 21.6C123.266 21.4613 123.676 21.392 124.05 21.392C124.722 21.392 125.271 21.488 125.698 21.68C126.135 21.8613 126.482 22.1227 126.738 22.464C126.994 22.8053 127.17 23.2107 127.266 23.68C127.362 24.1493 127.41 24.672 127.41 25.248V30H125.026V25.536C125.026 24.768 124.924 24.224 124.722 23.904C124.53 23.584 124.194 23.424 123.714 23.424C123.586 23.424 123.404 23.456 123.17 23.52C122.946 23.584 122.759 23.664 122.61 23.76C122.684 24.0053 122.732 24.2667 122.754 24.544C122.775 24.8107 122.786 25.0987 122.786 25.408V30H120.402V25.536Z" fill="#0669DE"></path><path d="M159.753 25.66C159.753 26.9517 160.275 27.5975 161.319 27.5975C161.557 27.5975 161.779 27.5665 161.985 27.5045C162.192 27.4425 162.368 27.3702 162.512 27.2875V23.5985C162.399 23.5778 162.264 23.5623 162.109 23.552C161.954 23.5313 161.774 23.521 161.567 23.521C160.957 23.521 160.503 23.7225 160.203 24.1255C159.903 24.5285 159.753 25.04 159.753 25.66ZM164.822 28.977C164.822 30.31 164.481 31.2968 163.799 31.9375C163.127 32.5885 162.084 32.914 160.668 32.914C160.172 32.914 159.676 32.8675 159.18 32.7745C158.684 32.6918 158.224 32.5782 157.8 32.4335L158.203 30.496C158.565 30.6407 158.942 30.7543 159.335 30.837C159.738 30.9197 160.193 30.961 160.699 30.961C161.36 30.961 161.825 30.8163 162.094 30.527C162.373 30.2377 162.512 29.8657 162.512 29.411V29.1165C162.264 29.2302 162.006 29.318 161.737 29.38C161.479 29.4317 161.195 29.4575 160.885 29.4575C159.759 29.4575 158.896 29.1268 158.296 28.4655C157.697 27.7938 157.397 26.8587 157.397 25.66C157.397 25.0607 157.49 24.5182 157.676 24.0325C157.862 23.5365 158.131 23.1128 158.482 22.7615C158.844 22.4102 159.283 22.1415 159.8 21.9555C160.317 21.7592 160.9 21.661 161.551 21.661C161.83 21.661 162.115 21.6765 162.404 21.7075C162.704 21.7282 162.998 21.7592 163.287 21.8005C163.577 21.8418 163.851 21.8935 164.109 21.9555C164.378 22.0072 164.615 22.064 164.822 22.126V28.977ZM166.828 21.4905C167.128 21.3665 167.438 21.227 167.758 21.072C168.089 20.9067 168.409 20.731 168.719 20.545C169.029 20.3487 169.324 20.1472 169.603 19.9405C169.892 19.7235 170.15 19.4962 170.378 19.2585H171.99V30H169.68V22.2655C169.37 22.4722 169.024 22.6633 168.642 22.839C168.259 23.0043 167.887 23.149 167.526 23.273L166.828 21.4905Z" fill="#C4170C"></path><path d="M199.622 25.52C199.622 26.8533 200.161 27.52 201.238 27.52C201.483 27.52 201.713 27.488 201.926 27.424C202.139 27.36 202.321 27.2853 202.47 27.2V23.392C202.353 23.3707 202.214 23.3547 202.054 23.344C201.894 23.3227 201.707 23.312 201.494 23.312C200.865 23.312 200.395 23.52 200.086 23.936C199.777 24.352 199.622 24.88 199.622 25.52ZM204.854 28.944C204.854 30.32 204.502 31.3387 203.798 32C203.105 32.672 202.027 33.008 200.566 33.008C200.054 33.008 199.542 32.96 199.03 32.864C198.518 32.7787 198.043 32.6613 197.606 32.512L198.022 30.512C198.395 30.6613 198.785 30.7787 199.19 30.864C199.606 30.9493 200.075 30.992 200.598 30.992C201.281 30.992 201.761 30.8427 202.038 30.544C202.326 30.2453 202.47 29.8613 202.47 29.392V29.088C202.214 29.2053 201.947 29.296 201.67 29.36C201.403 29.4133 201.11 29.44 200.79 29.44C199.627 29.44 198.737 29.0987 198.118 28.416C197.499 27.7227 197.19 26.7573 197.19 25.52C197.19 24.9013 197.286 24.3413 197.478 23.84C197.67 23.328 197.947 22.8907 198.31 22.528C198.683 22.1653 199.137 21.888 199.67 21.696C200.203 21.4933 200.806 21.392 201.478 21.392C201.766 21.392 202.059 21.408 202.358 21.44C202.667 21.4613 202.971 21.4933 203.27 21.536C203.569 21.5787 203.851 21.632 204.118 21.696C204.395 21.7493 204.641 21.808 204.854 21.872V28.944ZM206.53 25.856C206.53 25.1093 206.642 24.4587 206.866 23.904C207.101 23.3387 207.405 22.8693 207.778 22.496C208.151 22.1227 208.578 21.84 209.058 21.648C209.549 21.456 210.05 21.36 210.562 21.36C211.757 21.36 212.701 21.728 213.394 22.464C214.087 23.1893 214.434 24.2613 214.434 25.68C214.434 25.8187 214.429 25.9733 214.418 26.144C214.407 26.304 214.397 26.448 214.386 26.576H208.978C209.031 27.0667 209.261 27.456 209.666 27.744C210.071 28.032 210.615 28.176 211.298 28.176C211.735 28.176 212.162 28.1387 212.578 28.064C213.005 27.9787 213.351 27.8773 213.618 27.76L213.938 29.696C213.81 29.76 213.639 29.824 213.426 29.888C213.213 29.952 212.973 30.0053 212.706 30.048C212.45 30.1013 212.173 30.144 211.874 30.176C211.575 30.208 211.277 30.224 210.978 30.224C210.221 30.224 209.559 30.112 208.994 29.888C208.439 29.664 207.975 29.36 207.602 28.976C207.239 28.5813 206.967 28.1173 206.786 27.584C206.615 27.0507 206.53 26.4747 206.53 25.856ZM212.13 24.944C212.119 24.7413 212.082 24.544 212.018 24.352C211.965 24.16 211.874 23.9893 211.746 23.84C211.629 23.6907 211.474 23.568 211.282 23.472C211.101 23.376 210.871 23.328 210.594 23.328C210.327 23.328 210.098 23.376 209.906 23.472C209.714 23.5573 209.554 23.6747 209.426 23.824C209.298 23.9733 209.197 24.1493 209.122 24.352C209.058 24.544 209.01 24.7413 208.978 24.944H212.13Z" fill="#06AA48"></path><path d="M241.842 25.52C241.842 26.8533 242.381 27.52 243.458 27.52C243.703 27.52 243.933 27.488 244.146 27.424C244.359 27.36 244.541 27.2853 244.69 27.2V23.392C244.573 23.3707 244.434 23.3547 244.274 23.344C244.114 23.3227 243.927 23.312 243.714 23.312C243.085 23.312 242.615 23.52 242.306 23.936C241.997 24.352 241.842 24.88 241.842 25.52ZM247.074 28.944C247.074 30.32 246.722 31.3387 246.018 32C245.325 32.672 244.247 33.008 242.786 33.008C242.274 33.008 241.762 32.96 241.25 32.864C240.738 32.7787 240.263 32.6613 239.826 32.512L240.242 30.512C240.615 30.6613 241.005 30.7787 241.41 30.864C241.826 30.9493 242.295 30.992 242.818 30.992C243.501 30.992 243.981 30.8427 244.258 30.544C244.546 30.2453 244.69 29.8613 244.69 29.392V29.088C244.434 29.2053 244.167 29.296 243.89 29.36C243.623 29.4133 243.33 29.44 243.01 29.44C241.847 29.44 240.957 29.0987 240.338 28.416C239.719 27.7227 239.41 26.7573 239.41 25.52C239.41 24.9013 239.506 24.3413 239.698 23.84C239.89 23.328 240.167 22.8907 240.53 22.528C240.903 22.1653 241.357 21.888 241.89 21.696C242.423 21.4933 243.026 21.392 243.698 21.392C243.986 21.392 244.279 21.408 244.578 21.44C244.887 21.4613 245.191 21.4933 245.49 21.536C245.789 21.5787 246.071 21.632 246.338 21.696C246.615 21.7493 246.861 21.808 247.074 21.872V28.944ZM251.566 28.288C252.003 28.288 252.313 28.2453 252.494 28.16C252.675 28.0747 252.766 27.9093 252.766 27.664C252.766 27.472 252.649 27.3067 252.414 27.168C252.179 27.0187 251.822 26.8533 251.342 26.672C250.969 26.5333 250.627 26.3893 250.318 26.24C250.019 26.0907 249.763 25.9147 249.55 25.712C249.337 25.4987 249.171 25.248 249.054 24.96C248.937 24.672 248.878 24.3253 248.878 23.92C248.878 23.1307 249.171 22.5067 249.758 22.048C250.345 21.5893 251.15 21.36 252.174 21.36C252.686 21.36 253.177 21.408 253.646 21.504C254.115 21.5893 254.489 21.6853 254.766 21.792L254.35 23.648C254.073 23.552 253.769 23.4667 253.438 23.392C253.118 23.3173 252.755 23.28 252.35 23.28C251.603 23.28 251.23 23.488 251.23 23.904C251.23 24 251.246 24.0853 251.278 24.16C251.31 24.2347 251.374 24.3093 251.47 24.384C251.566 24.448 251.694 24.5227 251.854 24.608C252.025 24.6827 252.238 24.768 252.494 24.864C253.017 25.056 253.449 25.248 253.79 25.44C254.131 25.6213 254.398 25.824 254.59 26.048C254.793 26.2613 254.931 26.5013 255.006 26.768C255.091 27.0347 255.134 27.344 255.134 27.696C255.134 28.528 254.819 29.1573 254.19 29.584C253.571 30.0107 252.691 30.224 251.55 30.224C250.803 30.224 250.179 30.16 249.678 30.032C249.187 29.904 248.846 29.7973 248.654 29.712L249.054 27.776C249.459 27.936 249.875 28.064 250.302 28.16C250.729 28.2453 251.15 28.288 251.566 28.288ZM256.756 30V17.968L259.14 17.584V21.616C259.3 21.5627 259.502 21.5147 259.748 21.472C260.004 21.4187 260.249 21.392 260.484 21.392C261.166 21.392 261.732 21.488 262.18 21.68C262.638 21.8613 263.001 22.1227 263.268 22.464C263.545 22.8053 263.737 23.2107 263.844 23.68C263.961 24.1493 264.02 24.672 264.02 25.248V30H261.636V25.536C261.636 24.768 261.534 24.224 261.332 23.904C261.14 23.584 260.777 23.424 260.244 23.424C260.03 23.424 259.828 23.4453 259.636 23.488C259.454 23.52 259.289 23.5573 259.14 23.6V30H256.756ZM273.889 25.776C273.889 26.4373 273.793 27.0453 273.601 27.6C273.409 28.144 273.132 28.6133 272.769 29.008C272.407 29.392 271.969 29.6907 271.457 29.904C270.956 30.1173 270.391 30.224 269.761 30.224C269.143 30.224 268.577 30.1173 268.065 29.904C267.564 29.6907 267.132 29.392 266.769 29.008C266.407 28.6133 266.124 28.144 265.921 27.6C265.719 27.0453 265.617 26.4373 265.617 25.776C265.617 25.1147 265.719 24.512 265.921 23.968C266.135 23.424 266.423 22.96 266.785 22.576C267.159 22.192 267.596 21.8933 268.097 21.68C268.609 21.4667 269.164 21.36 269.761 21.36C270.369 21.36 270.924 21.4667 271.425 21.68C271.937 21.8933 272.375 22.192 272.737 22.576C273.1 22.96 273.383 23.424 273.585 23.968C273.788 24.512 273.889 25.1147 273.889 25.776ZM271.457 25.776C271.457 25.04 271.308 24.464 271.009 24.048C270.721 23.6213 270.305 23.408 269.761 23.408C269.217 23.408 268.796 23.6213 268.497 24.048C268.199 24.464 268.049 25.04 268.049 25.776C268.049 26.512 268.199 27.0987 268.497 27.536C268.796 27.9627 269.217 28.176 269.761 28.176C270.305 28.176 270.721 27.9627 271.009 27.536C271.308 27.0987 271.457 26.512 271.457 25.776ZM280.509 25.168C280.295 25.9787 280.066 26.784 279.821 27.584C279.586 28.384 279.335 29.1893 279.069 30H277.213C277.021 29.552 276.813 29.0187 276.589 28.4C276.365 27.7813 276.13 27.1093 275.885 26.384C275.65 25.648 275.405 24.8747 275.149 24.064C274.903 23.2427 274.663 22.416 274.429 21.584H276.941C277.026 21.968 277.117 22.3893 277.213 22.848C277.319 23.296 277.426 23.76 277.533 24.24C277.65 24.72 277.767 25.2053 277.885 25.696C278.013 26.176 278.141 26.64 278.269 27.088C278.407 26.6187 278.541 26.1387 278.669 25.648C278.807 25.1573 278.935 24.6773 279.053 24.208C279.181 23.728 279.298 23.2693 279.405 22.832C279.522 22.384 279.623 21.968 279.709 21.584H281.437C281.522 21.968 281.618 22.384 281.725 22.832C281.831 23.2693 281.943 23.728 282.061 24.208C282.178 24.6773 282.301 25.1573 282.429 25.648C282.557 26.1387 282.69 26.6187 282.829 27.088C282.957 26.64 283.085 26.176 283.213 25.696C283.341 25.2053 283.458 24.72 283.565 24.24C283.682 23.76 283.789 23.296 283.885 22.848C283.991 22.3893 284.087 21.968 284.173 21.584H286.653C286.418 22.416 286.173 23.2427 285.917 24.064C285.671 24.8747 285.426 25.648 285.181 26.384C284.946 27.1093 284.711 27.7813 284.477 28.4C284.253 29.0187 284.045 29.552 283.853 30H281.997C281.73 29.1893 281.469 28.384 281.213 27.584C280.957 26.784 280.722 25.9787 280.509 25.168Z" fill="#FF6700"></path><path d="M314.812 25.52C314.812 26.8533 315.351 27.52 316.428 27.52C316.673 27.52 316.903 27.488 317.116 27.424C317.329 27.36 317.511 27.2853 317.66 27.2V23.392C317.543 23.3707 317.404 23.3547 317.244 23.344C317.084 23.3227 316.897 23.312 316.684 23.312C316.055 23.312 315.585 23.52 315.276 23.936C314.967 24.352 314.812 24.88 314.812 25.52ZM320.044 28.944C320.044 30.32 319.692 31.3387 318.988 32C318.295 32.672 317.217 33.008 315.756 33.008C315.244 33.008 314.732 32.96 314.22 32.864C313.708 32.7787 313.233 32.6613 312.796 32.512L313.212 30.512C313.585 30.6613 313.975 30.7787 314.38 30.864C314.796 30.9493 315.265 30.992 315.788 30.992C316.471 30.992 316.951 30.8427 317.228 30.544C317.516 30.2453 317.66 29.8613 317.66 29.392V29.088C317.404 29.2053 317.137 29.296 316.86 29.36C316.593 29.4133 316.3 29.44 315.98 29.44C314.817 29.44 313.927 29.0987 313.308 28.416C312.689 27.7227 312.38 26.7573 312.38 25.52C312.38 24.9013 312.476 24.3413 312.668 23.84C312.86 23.328 313.137 22.8907 313.5 22.528C313.873 22.1653 314.327 21.888 314.86 21.696C315.393 21.4933 315.996 21.392 316.668 21.392C316.956 21.392 317.249 21.408 317.548 21.44C317.857 21.4613 318.161 21.4933 318.46 21.536C318.759 21.5787 319.041 21.632 319.308 21.696C319.585 21.7493 319.831 21.808 320.044 21.872V28.944ZM325.48 30.16C324.787 30.1493 324.221 30.0747 323.784 29.936C323.357 29.7973 323.016 29.6053 322.76 29.36C322.515 29.104 322.344 28.8 322.248 28.448C322.163 28.0853 322.12 27.68 322.12 27.232V17.968L324.504 17.584V26.752C324.504 26.9653 324.52 27.1573 324.552 27.328C324.584 27.4987 324.643 27.6427 324.728 27.76C324.824 27.8773 324.957 27.9733 325.128 28.048C325.299 28.1227 325.528 28.1707 325.816 28.192L325.48 30.16ZM334.895 25.776C334.895 26.4373 334.799 27.0453 334.607 27.6C334.415 28.144 334.137 28.6133 333.775 29.008C333.412 29.392 332.975 29.6907 332.463 29.904C331.961 30.1173 331.396 30.224 330.767 30.224C330.148 30.224 329.583 30.1173 329.071 29.904C328.569 29.6907 328.137 29.392 327.775 29.008C327.412 28.6133 327.129 28.144 326.927 27.6C326.724 27.0453 326.623 26.4373 326.623 25.776C326.623 25.1147 326.724 24.512 326.927 23.968C327.14 23.424 327.428 22.96 327.791 22.576C328.164 22.192 328.601 21.8933 329.103 21.68C329.615 21.4667 330.169 21.36 330.767 21.36C331.375 21.36 331.929 21.4667 332.431 21.68C332.943 21.8933 333.38 22.192 333.743 22.576C334.105 22.96 334.388 23.424 334.591 23.968C334.793 24.512 334.895 25.1147 334.895 25.776ZM332.463 25.776C332.463 25.04 332.313 24.464 332.015 24.048C331.727 23.6213 331.311 23.408 330.767 23.408C330.223 23.408 329.801 23.6213 329.503 24.048C329.204 24.464 329.055 25.04 329.055 25.776C329.055 26.512 329.204 27.0987 329.503 27.536C329.801 27.9627 330.223 28.176 330.767 28.176C331.311 28.176 331.727 27.9627 332.015 27.536C332.313 27.0987 332.463 26.512 332.463 25.776ZM341.973 25.728C341.973 24.192 341.408 23.424 340.277 23.424C340.032 23.424 339.787 23.456 339.541 23.52C339.307 23.584 339.115 23.664 338.965 23.76V28.096C339.083 28.1173 339.232 28.1387 339.413 28.16C339.595 28.1707 339.792 28.176 340.005 28.176C340.656 28.176 341.147 27.952 341.477 27.504C341.808 27.056 341.973 26.464 341.973 25.728ZM344.405 25.792C344.405 26.464 344.304 27.072 344.101 27.616C343.909 28.16 343.627 28.624 343.253 29.008C342.88 29.392 342.421 29.6907 341.877 29.904C341.333 30.1067 340.715 30.208 340.021 30.208C339.733 30.208 339.429 30.192 339.109 30.16C338.8 30.1387 338.491 30.1067 338.181 30.064C337.883 30.0213 337.595 29.9733 337.317 29.92C337.04 29.856 336.795 29.792 336.581 29.728V17.968L338.965 17.584V21.776C339.232 21.6587 339.509 21.568 339.797 21.504C340.085 21.44 340.395 21.408 340.725 21.408C341.323 21.408 341.851 21.5147 342.309 21.728C342.768 21.9307 343.152 22.224 343.461 22.608C343.771 22.992 344.005 23.456 344.165 24C344.325 24.5333 344.405 25.1307 344.405 25.792ZM353.95 25.776C353.95 26.4373 353.854 27.0453 353.662 27.6C353.47 28.144 353.192 28.6133 352.83 29.008C352.467 29.392 352.03 29.6907 351.518 29.904C351.016 30.1173 350.451 30.224 349.822 30.224C349.203 30.224 348.638 30.1173 348.126 29.904C347.624 29.6907 347.192 29.392 346.83 29.008C346.467 28.6133 346.184 28.144 345.982 27.6C345.779 27.0453 345.678 26.4373 345.678 25.776C345.678 25.1147 345.779 24.512 345.982 23.968C346.195 23.424 346.483 22.96 346.846 22.576C347.219 22.192 347.656 21.8933 348.158 21.68C348.67 21.4667 349.224 21.36 349.822 21.36C350.43 21.36 350.984 21.4667 351.486 21.68C351.998 21.8933 352.435 22.192 352.798 22.576C353.16 22.96 353.443 23.424 353.646 23.968C353.848 24.512 353.95 25.1147 353.95 25.776ZM351.518 25.776C351.518 25.04 351.368 24.464 351.07 24.048C350.782 23.6213 350.366 23.408 349.822 23.408C349.278 23.408 348.856 23.6213 348.558 24.048C348.259 24.464 348.11 25.04 348.11 25.776C348.11 26.512 348.259 27.0987 348.558 27.536C348.856 27.9627 349.278 28.176 349.822 28.176C350.366 28.176 350.782 27.9627 351.07 27.536C351.368 27.0987 351.518 26.512 351.518 25.776ZM361.028 25.856C361.028 25.12 360.863 24.5333 360.532 24.096C360.202 23.648 359.711 23.424 359.06 23.424C358.847 23.424 358.65 23.4347 358.468 23.456C358.287 23.4667 358.138 23.4827 358.02 23.504V27.808C358.17 27.904 358.362 27.984 358.596 28.048C358.842 28.112 359.087 28.144 359.332 28.144C360.463 28.144 361.028 27.3813 361.028 25.856ZM363.46 25.792C363.46 26.4427 363.38 27.0347 363.22 27.568C363.06 28.1013 362.826 28.56 362.516 28.944C362.207 29.328 361.823 29.6267 361.364 29.84C360.906 30.0533 360.378 30.16 359.78 30.16C359.45 30.16 359.14 30.128 358.852 30.064C358.564 30 358.287 29.9093 358.02 29.792V32.96H355.636V21.872C355.85 21.808 356.095 21.7493 356.372 21.696C356.65 21.632 356.938 21.5787 357.236 21.536C357.546 21.4933 357.855 21.4613 358.164 21.44C358.484 21.408 358.788 21.392 359.076 21.392C359.77 21.392 360.388 21.4987 360.932 21.712C361.476 21.9147 361.935 22.208 362.308 22.592C362.682 22.9653 362.964 23.424 363.156 23.968C363.359 24.512 363.46 25.12 363.46 25.792ZM368.493 30.16C367.799 30.1493 367.234 30.0747 366.797 29.936C366.37 29.7973 366.029 29.6053 365.773 29.36C365.527 29.104 365.357 28.8 365.261 28.448C365.175 28.0853 365.133 27.68 365.133 27.232V17.968L367.517 17.584V26.752C367.517 26.9653 367.533 27.1573 367.565 27.328C367.597 27.4987 367.655 27.6427 367.741 27.76C367.837 27.8773 367.97 27.9733 368.141 28.048C368.311 28.1227 368.541 28.1707 368.829 28.192L368.493 30.16ZM373.485 28.336C373.72 28.336 373.944 28.3307 374.157 28.32C374.371 28.3093 374.541 28.2933 374.669 28.272V26.464C374.573 26.4427 374.429 26.4213 374.237 26.4C374.045 26.3787 373.869 26.368 373.709 26.368C373.485 26.368 373.272 26.384 373.069 26.416C372.877 26.4373 372.707 26.4853 372.557 26.56C372.408 26.6347 372.291 26.736 372.205 26.864C372.12 26.992 372.077 27.152 372.077 27.344C372.077 27.7173 372.2 27.9787 372.445 28.128C372.701 28.2667 373.048 28.336 373.485 28.336ZM373.293 21.36C373.997 21.36 374.584 21.44 375.053 21.6C375.523 21.76 375.896 21.9893 376.173 22.288C376.461 22.5867 376.664 22.9493 376.781 23.376C376.899 23.8027 376.957 24.2773 376.957 24.8V29.76C376.616 29.8347 376.141 29.92 375.533 30.016C374.925 30.1227 374.189 30.176 373.325 30.176C372.781 30.176 372.285 30.128 371.837 30.032C371.4 29.936 371.021 29.7813 370.701 29.568C370.381 29.344 370.136 29.056 369.965 28.704C369.795 28.352 369.709 27.92 369.709 27.408C369.709 26.9173 369.805 26.5013 369.997 26.16C370.2 25.8187 370.467 25.5467 370.797 25.344C371.128 25.1413 371.507 24.9973 371.933 24.912C372.36 24.816 372.803 24.768 373.261 24.768C373.571 24.768 373.843 24.784 374.077 24.816C374.323 24.8373 374.52 24.8693 374.669 24.912V24.688C374.669 24.2827 374.547 23.9573 374.301 23.712C374.056 23.4667 373.629 23.344 373.021 23.344C372.616 23.344 372.216 23.376 371.821 23.44C371.427 23.4933 371.085 23.5733 370.797 23.68L370.493 21.76C370.632 21.7173 370.803 21.6747 371.005 21.632C371.219 21.5787 371.448 21.536 371.693 21.504C371.939 21.4613 372.195 21.4293 372.461 21.408C372.739 21.376 373.016 21.36 373.293 21.36ZM386.222 21.584C385.742 23.2053 385.241 24.7253 384.718 26.144C384.195 27.5627 383.625 28.9387 383.006 30.272C382.782 30.752 382.558 31.1573 382.334 31.488C382.11 31.8293 381.865 32.1067 381.598 32.32C381.331 32.544 381.027 32.704 380.686 32.8C380.355 32.9067 379.966 32.96 379.518 32.96C379.145 32.96 378.798 32.9227 378.478 32.848C378.169 32.784 377.913 32.7093 377.71 32.624L378.126 30.72C378.371 30.8053 378.59 30.864 378.782 30.896C378.974 30.928 379.177 30.944 379.39 30.944C379.817 30.944 380.142 30.8267 380.366 30.592C380.601 30.368 380.798 30.0533 380.958 29.648C380.414 28.5813 379.87 27.3867 379.326 26.064C378.782 24.7307 378.27 23.2373 377.79 21.584H380.318C380.425 22 380.547 22.4533 380.686 22.944C380.835 23.424 380.99 23.9147 381.15 24.416C381.31 24.9067 381.47 25.3867 381.63 25.856C381.801 26.3253 381.961 26.752 382.11 27.136C382.249 26.752 382.393 26.3253 382.542 25.856C382.691 25.3867 382.835 24.9067 382.974 24.416C383.123 23.9147 383.262 23.424 383.39 22.944C383.529 22.4533 383.651 22 383.758 21.584H386.222Z" fill="#FB0334"></path><path d="M425.582 25.776C425.582 26.4373 425.486 27.0453 425.294 27.6C425.102 28.144 424.825 28.6133 424.462 29.008C424.099 29.392 423.662 29.6907 423.15 29.904C422.649 30.1173 422.083 30.224 421.454 30.224C420.835 30.224 420.27 30.1173 419.758 29.904C419.257 29.6907 418.825 29.392 418.462 29.008C418.099 28.6133 417.817 28.144 417.614 27.6C417.411 27.0453 417.31 26.4373 417.31 25.776C417.31 25.1147 417.411 24.512 417.614 23.968C417.827 23.424 418.115 22.96 418.478 22.576C418.851 22.192 419.289 21.8933 419.79 21.68C420.302 21.4667 420.857 21.36 421.454 21.36C422.062 21.36 422.617 21.4667 423.118 21.68C423.63 21.8933 424.067 22.192 424.43 22.576C424.793 22.96 425.075 23.424 425.278 23.968C425.481 24.512 425.582 25.1147 425.582 25.776ZM423.15 25.776C423.15 25.04 423.001 24.464 422.702 24.048C422.414 23.6213 421.998 23.408 421.454 23.408C420.91 23.408 420.489 23.6213 420.19 24.048C419.891 24.464 419.742 25.04 419.742 25.776C419.742 26.512 419.891 27.0987 420.19 27.536C420.489 27.9627 420.91 28.176 421.454 28.176C421.998 28.176 422.414 27.9627 422.702 27.536C423.001 27.0987 423.15 26.512 423.15 25.776ZM432.984 25.52C432.984 26.8533 433.523 27.52 434.6 27.52C434.846 27.52 435.075 27.488 435.288 27.424C435.502 27.36 435.683 27.2853 435.832 27.2V23.392C435.715 23.3707 435.576 23.3547 435.416 23.344C435.256 23.3227 435.07 23.312 434.856 23.312C434.227 23.312 433.758 23.52 433.448 23.936C433.139 24.352 432.984 24.88 432.984 25.52ZM438.216 28.944C438.216 30.32 437.864 31.3387 437.16 32C436.467 32.672 435.39 33.008 433.928 33.008C433.416 33.008 432.904 32.96 432.392 32.864C431.88 32.7787 431.406 32.6613 430.968 32.512L431.384 30.512C431.758 30.6613 432.147 30.7787 432.552 30.864C432.968 30.9493 433.438 30.992 433.96 30.992C434.643 30.992 435.123 30.8427 435.4 30.544C435.688 30.2453 435.832 29.8613 435.832 29.392V29.088C435.576 29.2053 435.31 29.296 435.032 29.36C434.766 29.4133 434.472 29.44 434.152 29.44C432.99 29.44 432.099 29.0987 431.48 28.416C430.862 27.7227 430.552 26.7573 430.552 25.52C430.552 24.9013 430.648 24.3413 430.84 23.84C431.032 23.328 431.31 22.8907 431.672 22.528C432.046 22.1653 432.499 21.888 433.032 21.696C433.566 21.4933 434.168 21.392 434.84 21.392C435.128 21.392 435.422 21.408 435.72 21.44C436.03 21.4613 436.334 21.4933 436.632 21.536C436.931 21.5787 437.214 21.632 437.48 21.696C437.758 21.7493 438.003 21.808 438.216 21.872V28.944ZM443.652 30.16C442.959 30.1493 442.394 30.0747 441.956 29.936C441.53 29.7973 441.188 29.6053 440.932 29.36C440.687 29.104 440.516 28.8 440.42 28.448C440.335 28.0853 440.292 27.68 440.292 27.232V17.968L442.676 17.584V26.752C442.676 26.9653 442.692 27.1573 442.724 27.328C442.756 27.4987 442.815 27.6427 442.9 27.76C442.996 27.8773 443.13 27.9733 443.3 28.048C443.471 28.1227 443.7 28.1707 443.988 28.192L443.652 30.16ZM453.067 25.776C453.067 26.4373 452.971 27.0453 452.779 27.6C452.587 28.144 452.31 28.6133 451.947 29.008C451.584 29.392 451.147 29.6907 450.635 29.904C450.134 30.1173 449.568 30.224 448.939 30.224C448.32 30.224 447.755 30.1173 447.243 29.904C446.742 29.6907 446.31 29.392 445.947 29.008C445.584 28.6133 445.302 28.144 445.099 27.6C444.896 27.0453 444.795 26.4373 444.795 25.776C444.795 25.1147 444.896 24.512 445.099 23.968C445.312 23.424 445.6 22.96 445.963 22.576C446.336 22.192 446.774 21.8933 447.275 21.68C447.787 21.4667 448.342 21.36 448.939 21.36C449.547 21.36 450.102 21.4667 450.603 21.68C451.115 21.8933 451.552 22.192 451.915 22.576C452.278 22.96 452.56 23.424 452.763 23.968C452.966 24.512 453.067 25.1147 453.067 25.776ZM450.635 25.776C450.635 25.04 450.486 24.464 450.187 24.048C449.899 23.6213 449.483 23.408 448.939 23.408C448.395 23.408 447.974 23.6213 447.675 24.048C447.376 24.464 447.227 25.04 447.227 25.776C447.227 26.512 447.376 27.0987 447.675 27.536C447.974 27.9627 448.395 28.176 448.939 28.176C449.483 28.176 449.899 27.9627 450.187 27.536C450.486 27.0987 450.635 26.512 450.635 25.776ZM460.146 25.728C460.146 24.192 459.58 23.424 458.45 23.424C458.204 23.424 457.959 23.456 457.714 23.52C457.479 23.584 457.287 23.664 457.138 23.76V28.096C457.255 28.1173 457.404 28.1387 457.586 28.16C457.767 28.1707 457.964 28.176 458.178 28.176C458.828 28.176 459.319 27.952 459.65 27.504C459.98 27.056 460.146 26.464 460.146 25.728ZM462.578 25.792C462.578 26.464 462.476 27.072 462.274 27.616C462.082 28.16 461.799 28.624 461.426 29.008C461.052 29.392 460.594 29.6907 460.05 29.904C459.506 30.1067 458.887 30.208 458.194 30.208C457.906 30.208 457.602 30.192 457.282 30.16C456.972 30.1387 456.663 30.1067 456.354 30.064C456.055 30.0213 455.767 29.9733 455.49 29.92C455.212 29.856 454.967 29.792 454.754 29.728V17.968L457.138 17.584V21.776C457.404 21.6587 457.682 21.568 457.97 21.504C458.258 21.44 458.567 21.408 458.898 21.408C459.495 21.408 460.023 21.5147 460.482 21.728C460.94 21.9307 461.324 22.224 461.634 22.608C461.943 22.992 462.178 23.456 462.338 24C462.498 24.5333 462.578 25.1307 462.578 25.792ZM472.122 25.776C472.122 26.4373 472.026 27.0453 471.834 27.6C471.642 28.144 471.365 28.6133 471.002 29.008C470.639 29.392 470.202 29.6907 469.69 29.904C469.189 30.1173 468.623 30.224 467.994 30.224C467.375 30.224 466.81 30.1173 466.298 29.904C465.797 29.6907 465.365 29.392 465.002 29.008C464.639 28.6133 464.357 28.144 464.154 27.6C463.951 27.0453 463.85 26.4373 463.85 25.776C463.85 25.1147 463.951 24.512 464.154 23.968C464.367 23.424 464.655 22.96 465.018 22.576C465.391 22.192 465.829 21.8933 466.33 21.68C466.842 21.4667 467.397 21.36 467.994 21.36C468.602 21.36 469.157 21.4667 469.658 21.68C470.17 21.8933 470.607 22.192 470.97 22.576C471.333 22.96 471.615 23.424 471.818 23.968C472.021 24.512 472.122 25.1147 472.122 25.776ZM469.69 25.776C469.69 25.04 469.541 24.464 469.242 24.048C468.954 23.6213 468.538 23.408 467.994 23.408C467.45 23.408 467.029 23.6213 466.73 24.048C466.431 24.464 466.282 25.04 466.282 25.776C466.282 26.512 466.431 27.0987 466.73 27.536C467.029 27.9627 467.45 28.176 467.994 28.176C468.538 28.176 468.954 27.9627 469.242 27.536C469.541 27.0987 469.69 26.512 469.69 25.776Z" fill="#1E4C9A"></path><path d="M502.182 25.52C502.182 26.8533 502.721 27.52 503.798 27.52C504.043 27.52 504.273 27.488 504.486 27.424C504.699 27.36 504.881 27.2853 505.03 27.2V23.392C504.913 23.3707 504.774 23.3547 504.614 23.344C504.454 23.3227 504.267 23.312 504.054 23.312C503.425 23.312 502.955 23.52 502.646 23.936C502.337 24.352 502.182 24.88 502.182 25.52ZM507.414 28.944C507.414 30.32 507.062 31.3387 506.358 32C505.665 32.672 504.587 33.008 503.126 33.008C502.614 33.008 502.102 32.96 501.59 32.864C501.078 32.7787 500.603 32.6613 500.166 32.512L500.582 30.512C500.955 30.6613 501.345 30.7787 501.75 30.864C502.166 30.9493 502.635 30.992 503.158 30.992C503.841 30.992 504.321 30.8427 504.598 30.544C504.886 30.2453 505.03 29.8613 505.03 29.392V29.088C504.774 29.2053 504.507 29.296 504.23 29.36C503.963 29.4133 503.67 29.44 503.35 29.44C502.187 29.44 501.297 29.0987 500.678 28.416C500.059 27.7227 499.75 26.7573 499.75 25.52C499.75 24.9013 499.846 24.3413 500.038 23.84C500.23 23.328 500.507 22.8907 500.87 22.528C501.243 22.1653 501.697 21.888 502.23 21.696C502.763 21.4933 503.366 21.392 504.038 21.392C504.326 21.392 504.619 21.408 504.918 21.44C505.227 21.4613 505.531 21.4933 505.83 21.536C506.129 21.5787 506.411 21.632 506.678 21.696C506.955 21.7493 507.201 21.808 507.414 21.872V28.944ZM516.674 29.712C516.269 29.8293 515.746 29.936 515.106 30.032C514.466 30.1387 513.794 30.192 513.09 30.192C512.375 30.192 511.778 30.096 511.298 29.904C510.829 29.712 510.455 29.4453 510.178 29.104C509.901 28.752 509.703 28.336 509.586 27.856C509.469 27.376 509.41 26.848 509.41 26.272V21.584H511.794V25.984C511.794 26.752 511.895 27.3067 512.098 27.648C512.301 27.9893 512.679 28.16 513.234 28.16C513.405 28.16 513.586 28.1547 513.778 28.144C513.97 28.1227 514.141 28.1013 514.29 28.08V21.584H516.674V29.712ZM521.136 30H518.752V21.584H521.136V30ZM521.36 19.152C521.36 19.5893 521.216 19.936 520.928 20.192C520.651 20.4373 520.32 20.56 519.936 20.56C519.552 20.56 519.216 20.4373 518.928 20.192C518.651 19.936 518.512 19.5893 518.512 19.152C518.512 18.7147 518.651 18.3733 518.928 18.128C519.216 17.872 519.552 17.744 519.936 17.744C520.32 17.744 520.651 17.872 520.928 18.128C521.216 18.3733 521.36 18.7147 521.36 19.152ZM526.433 28.336C526.668 28.336 526.892 28.3307 527.105 28.32C527.318 28.3093 527.489 28.2933 527.617 28.272V26.464C527.521 26.4427 527.377 26.4213 527.185 26.4C526.993 26.3787 526.817 26.368 526.657 26.368C526.433 26.368 526.22 26.384 526.017 26.416C525.825 26.4373 525.654 26.4853 525.505 26.56C525.356 26.6347 525.238 26.736 525.153 26.864C525.068 26.992 525.025 27.152 525.025 27.344C525.025 27.7173 525.148 27.9787 525.393 28.128C525.649 28.2667 525.996 28.336 526.433 28.336ZM526.241 21.36C526.945 21.36 527.532 21.44 528.001 21.6C528.47 21.76 528.844 21.9893 529.121 22.288C529.409 22.5867 529.612 22.9493 529.729 23.376C529.846 23.8027 529.905 24.2773 529.905 24.8V29.76C529.564 29.8347 529.089 29.92 528.481 30.016C527.873 30.1227 527.137 30.176 526.273 30.176C525.729 30.176 525.233 30.128 524.785 30.032C524.348 29.936 523.969 29.7813 523.649 29.568C523.329 29.344 523.084 29.056 522.913 28.704C522.742 28.352 522.657 27.92 522.657 27.408C522.657 26.9173 522.753 26.5013 522.945 26.16C523.148 25.8187 523.414 25.5467 523.745 25.344C524.076 25.1413 524.454 24.9973 524.881 24.912C525.308 24.816 525.75 24.768 526.209 24.768C526.518 24.768 526.79 24.784 527.025 24.816C527.27 24.8373 527.468 24.8693 527.617 24.912V24.688C527.617 24.2827 527.494 23.9573 527.249 23.712C527.004 23.4667 526.577 23.344 525.969 23.344C525.564 23.344 525.164 23.376 524.769 23.44C524.374 23.4933 524.033 23.5733 523.745 23.68L523.441 21.76C523.58 21.7173 523.75 21.6747 523.953 21.632C524.166 21.5787 524.396 21.536 524.641 21.504C524.886 21.4613 525.142 21.4293 525.409 21.408C525.686 21.376 525.964 21.36 526.241 21.36ZM537.616 25.728C537.616 26.464 537.782 27.056 538.112 27.504C538.443 27.952 538.934 28.176 539.584 28.176C539.798 28.176 539.995 28.1707 540.176 28.16C540.358 28.1387 540.507 28.1173 540.624 28.096V23.76C540.475 23.664 540.278 23.584 540.032 23.52C539.798 23.456 539.558 23.424 539.312 23.424C538.182 23.424 537.616 24.192 537.616 25.728ZM543.008 29.728C542.795 29.792 542.55 29.856 542.272 29.92C541.995 29.9733 541.702 30.0213 541.392 30.064C541.094 30.1067 540.784 30.1387 540.464 30.16C540.155 30.192 539.856 30.208 539.568 30.208C538.875 30.208 538.256 30.1067 537.712 29.904C537.168 29.7013 536.71 29.4133 536.336 29.04C535.963 28.656 535.675 28.1973 535.472 27.664C535.28 27.12 535.184 26.512 535.184 25.84C535.184 25.1573 535.27 24.544 535.44 24C535.611 23.4453 535.856 22.976 536.176 22.592C536.496 22.208 536.886 21.9147 537.344 21.712C537.814 21.5093 538.347 21.408 538.944 21.408C539.275 21.408 539.568 21.44 539.824 21.504C540.091 21.568 540.358 21.6587 540.624 21.776V17.968L543.008 17.584V29.728ZM544.681 25.856C544.681 25.1093 544.793 24.4587 545.017 23.904C545.251 23.3387 545.555 22.8693 545.929 22.496C546.302 22.1227 546.729 21.84 547.209 21.648C547.699 21.456 548.201 21.36 548.713 21.36C549.907 21.36 550.851 21.728 551.545 22.464C552.238 23.1893 552.585 24.2613 552.585 25.68C552.585 25.8187 552.579 25.9733 552.569 26.144C552.558 26.304 552.547 26.448 552.537 26.576H547.129C547.182 27.0667 547.411 27.456 547.817 27.744C548.222 28.032 548.766 28.176 549.449 28.176C549.886 28.176 550.313 28.1387 550.729 28.064C551.155 27.9787 551.502 27.8773 551.769 27.76L552.089 29.696C551.961 29.76 551.79 29.824 551.577 29.888C551.363 29.952 551.123 30.0053 550.857 30.048C550.601 30.1013 550.323 30.144 550.025 30.176C549.726 30.208 549.427 30.224 549.129 30.224C548.371 30.224 547.71 30.112 547.145 29.888C546.59 29.664 546.126 29.36 545.753 28.976C545.39 28.5813 545.118 28.1173 544.937 27.584C544.766 27.0507 544.681 26.4747 544.681 25.856ZM550.281 24.944C550.27 24.7413 550.233 24.544 550.169 24.352C550.115 24.16 550.025 23.9893 549.897 23.84C549.779 23.6907 549.625 23.568 549.433 23.472C549.251 23.376 549.022 23.328 548.745 23.328C548.478 23.328 548.249 23.376 548.057 23.472C547.865 23.5573 547.705 23.6747 547.577 23.824C547.449 23.9733 547.347 24.1493 547.273 24.352C547.209 24.544 547.161 24.7413 547.129 24.944H550.281ZM557.548 25.792C557.548 25.184 557.644 24.6133 557.836 24.08C558.039 23.536 558.327 23.0667 558.7 22.672C559.073 22.2667 559.527 21.9467 560.06 21.712C560.593 21.4773 561.201 21.36 561.884 21.36C562.332 21.36 562.743 21.4027 563.116 21.488C563.489 21.5627 563.852 21.6747 564.204 21.824L563.708 23.728C563.484 23.6427 563.239 23.568 562.972 23.504C562.705 23.44 562.407 23.408 562.076 23.408C561.372 23.408 560.844 23.6267 560.492 24.064C560.151 24.5013 559.98 25.0773 559.98 25.792C559.98 26.5493 560.14 27.136 560.46 27.552C560.791 27.968 561.361 28.176 562.172 28.176C562.46 28.176 562.769 28.1493 563.1 28.096C563.431 28.0427 563.735 27.9573 564.012 27.84L564.348 29.792C564.071 29.9093 563.724 30.0107 563.308 30.096C562.892 30.1813 562.433 30.224 561.932 30.224C561.164 30.224 560.503 30.112 559.948 29.888C559.393 29.6533 558.935 29.3387 558.572 28.944C558.22 28.5493 557.959 28.0853 557.788 27.552C557.628 27.008 557.548 26.4213 557.548 25.792ZM573.254 25.776C573.254 26.4373 573.158 27.0453 572.966 27.6C572.774 28.144 572.497 28.6133 572.134 29.008C571.771 29.392 571.334 29.6907 570.822 29.904C570.321 30.1173 569.755 30.224 569.126 30.224C568.507 30.224 567.942 30.1173 567.43 29.904C566.929 29.6907 566.497 29.392 566.134 29.008C565.771 28.6133 565.489 28.144 565.286 27.6C565.083 27.0453 564.982 26.4373 564.982 25.776C564.982 25.1147 565.083 24.512 565.286 23.968C565.499 23.424 565.787 22.96 566.15 22.576C566.523 22.192 566.961 21.8933 567.462 21.68C567.974 21.4667 568.529 21.36 569.126 21.36C569.734 21.36 570.289 21.4667 570.79 21.68C571.302 21.8933 571.739 22.192 572.102 22.576C572.465 22.96 572.747 23.424 572.95 23.968C573.153 24.512 573.254 25.1147 573.254 25.776ZM570.822 25.776C570.822 25.04 570.673 24.464 570.374 24.048C570.086 23.6213 569.67 23.408 569.126 23.408C568.582 23.408 568.161 23.6213 567.862 24.048C567.563 24.464 567.414 25.04 567.414 25.776C567.414 26.512 567.563 27.0987 567.862 27.536C568.161 27.9627 568.582 28.176 569.126 28.176C569.67 28.176 570.086 27.9627 570.374 27.536C570.673 27.0987 570.822 26.512 570.822 25.776ZM579.565 25.536C579.565 24.768 579.463 24.224 579.261 23.904C579.069 23.584 578.733 23.424 578.253 23.424C578.103 23.424 577.949 23.4347 577.789 23.456C577.629 23.4667 577.474 23.4827 577.325 23.504V30H574.941V21.872C575.143 21.8187 575.378 21.7653 575.645 21.712C575.922 21.648 576.21 21.5947 576.509 21.552C576.818 21.4987 577.133 21.4613 577.453 21.44C577.773 21.408 578.087 21.392 578.397 21.392C579.005 21.392 579.495 21.472 579.869 21.632C580.253 21.7813 580.567 21.9627 580.813 22.176C581.154 21.9307 581.543 21.7387 581.981 21.6C582.429 21.4613 582.839 21.392 583.213 21.392C583.885 21.392 584.434 21.488 584.861 21.68C585.298 21.8613 585.645 22.1227 585.901 22.464C586.157 22.8053 586.333 23.2107 586.429 23.68C586.525 24.1493 586.573 24.672 586.573 25.248V30H584.189V25.536C584.189 24.768 584.087 24.224 583.885 23.904C583.693 23.584 583.357 23.424 582.877 23.424C582.749 23.424 582.567 23.456 582.333 23.52C582.109 23.584 581.922 23.664 581.773 23.76C581.847 24.0053 581.895 24.2667 581.917 24.544C581.938 24.8107 581.949 25.0987 581.949 25.408V30H579.565V25.536ZM593.97 25.856C593.97 25.12 593.804 24.5333 593.474 24.096C593.143 23.648 592.652 23.424 592.002 23.424C591.788 23.424 591.591 23.4347 591.41 23.456C591.228 23.4667 591.079 23.4827 590.962 23.504V27.808C591.111 27.904 591.303 27.984 591.538 28.048C591.783 28.112 592.028 28.144 592.274 28.144C593.404 28.144 593.97 27.3813 593.97 25.856ZM596.402 25.792C596.402 26.4427 596.322 27.0347 596.162 27.568C596.002 28.1013 595.767 28.56 595.458 28.944C595.148 29.328 594.764 29.6267 594.306 29.84C593.847 30.0533 593.319 30.16 592.722 30.16C592.391 30.16 592.082 30.128 591.794 30.064C591.506 30 591.228 29.9093 590.962 29.792V32.96H588.578V21.872C588.791 21.808 589.036 21.7493 589.314 21.696C589.591 21.632 589.879 21.5787 590.178 21.536C590.487 21.4933 590.796 21.4613 591.106 21.44C591.426 21.408 591.73 21.392 592.018 21.392C592.711 21.392 593.33 21.4987 593.874 21.712C594.418 21.9147 594.876 22.208 595.25 22.592C595.623 22.9653 595.906 23.424 596.098 23.968C596.3 24.512 596.402 25.12 596.402 25.792ZM603.146 23.696C602.932 23.6427 602.682 23.5893 602.394 23.536C602.106 23.472 601.796 23.44 601.466 23.44C601.316 23.44 601.135 23.456 600.922 23.488C600.719 23.5093 600.564 23.536 600.458 23.568V30H598.074V22.032C598.5 21.8827 599.002 21.744 599.578 21.616C600.164 21.4773 600.815 21.408 601.53 21.408C601.658 21.408 601.812 21.4187 601.994 21.44C602.175 21.4507 602.356 21.472 602.538 21.504C602.719 21.5253 602.9 21.5573 603.082 21.6C603.263 21.632 603.418 21.6747 603.546 21.728L603.146 23.696ZM607.724 28.336C607.958 28.336 608.182 28.3307 608.396 28.32C608.609 28.3093 608.78 28.2933 608.908 28.272V26.464C608.812 26.4427 608.668 26.4213 608.476 26.4C608.284 26.3787 608.108 26.368 607.948 26.368C607.724 26.368 607.51 26.384 607.308 26.416C607.116 26.4373 606.945 26.4853 606.796 26.56C606.646 26.6347 606.529 26.736 606.444 26.864C606.358 26.992 606.316 27.152 606.316 27.344C606.316 27.7173 606.438 27.9787 606.684 28.128C606.94 28.2667 607.286 28.336 607.724 28.336ZM607.532 21.36C608.236 21.36 608.822 21.44 609.292 21.6C609.761 21.76 610.134 21.9893 610.412 22.288C610.7 22.5867 610.902 22.9493 611.02 23.376C611.137 23.8027 611.196 24.2773 611.196 24.8V29.76C610.854 29.8347 610.38 29.92 609.772 30.016C609.164 30.1227 608.428 30.176 607.564 30.176C607.02 30.176 606.524 30.128 606.076 30.032C605.638 29.936 605.26 29.7813 604.94 29.568C604.62 29.344 604.374 29.056 604.204 28.704C604.033 28.352 603.948 27.92 603.948 27.408C603.948 26.9173 604.044 26.5013 604.236 26.16C604.438 25.8187 604.705 25.5467 605.036 25.344C605.366 25.1413 605.745 24.9973 606.172 24.912C606.598 24.816 607.041 24.768 607.5 24.768C607.809 24.768 608.081 24.784 608.316 24.816C608.561 24.8373 608.758 24.8693 608.908 24.912V24.688C608.908 24.2827 608.785 23.9573 608.54 23.712C608.294 23.4667 607.868 23.344 607.26 23.344C606.854 23.344 606.454 23.376 606.06 23.44C605.665 23.4933 605.324 23.5733 605.036 23.68L604.732 21.76C604.87 21.7173 605.041 21.6747 605.244 21.632C605.457 21.5787 605.686 21.536 605.932 21.504C606.177 21.4613 606.433 21.4293 606.7 21.408C606.977 21.376 607.254 21.36 607.532 21.36ZM615.607 28.288C616.045 28.288 616.354 28.2453 616.535 28.16C616.717 28.0747 616.807 27.9093 616.807 27.664C616.807 27.472 616.69 27.3067 616.455 27.168C616.221 27.0187 615.863 26.8533 615.383 26.672C615.01 26.5333 614.669 26.3893 614.359 26.24C614.061 26.0907 613.805 25.9147 613.591 25.712C613.378 25.4987 613.213 25.248 613.095 24.96C612.978 24.672 612.919 24.3253 612.919 23.92C612.919 23.1307 613.213 22.5067 613.799 22.048C614.386 21.5893 615.191 21.36 616.215 21.36C616.727 21.36 617.218 21.408 617.687 21.504C618.157 21.5893 618.53 21.6853 618.807 21.792L618.391 23.648C618.114 23.552 617.81 23.4667 617.479 23.392C617.159 23.3173 616.797 23.28 616.391 23.28C615.645 23.28 615.271 23.488 615.271 23.904C615.271 24 615.287 24.0853 615.319 24.16C615.351 24.2347 615.415 24.3093 615.511 24.384C615.607 24.448 615.735 24.5227 615.895 24.608C616.066 24.6827 616.279 24.768 616.535 24.864C617.058 25.056 617.49 25.248 617.831 25.44C618.173 25.6213 618.439 25.824 618.631 26.048C618.834 26.2613 618.973 26.5013 619.047 26.768C619.133 27.0347 619.175 27.344 619.175 27.696C619.175 28.528 618.861 29.1573 618.231 29.584C617.613 30.0107 616.733 30.224 615.591 30.224C614.845 30.224 614.221 30.16 613.719 30.032C613.229 29.904 612.887 29.7973 612.695 29.712L613.095 27.776C613.501 27.936 613.917 28.064 614.343 28.16C614.77 28.2453 615.191 28.288 615.607 28.288Z" fill="#C4170C"></path><path d="M1145.9 30C1145.79 29.616 1145.65 29.2213 1145.5 28.816C1145.37 28.4107 1145.23 28.0053 1145.09 27.6H1140.77C1140.63 28.0053 1140.49 28.4107 1140.34 28.816C1140.2 29.2213 1140.07 29.616 1139.95 30H1137.36C1137.78 28.8053 1138.17 27.7013 1138.54 26.688C1138.92 25.6747 1139.28 24.72 1139.63 23.824C1139.99 22.928 1140.35 22.08 1140.69 21.28C1141.04 20.4693 1141.4 19.68 1141.78 18.912H1144.16C1144.52 19.68 1144.88 20.4693 1145.23 21.28C1145.58 22.08 1145.94 22.928 1146.29 23.824C1146.65 24.72 1147.02 25.6747 1147.39 26.688C1147.77 27.7013 1148.16 28.8053 1148.58 30H1145.9ZM1142.91 21.424C1142.86 21.584 1142.78 21.8027 1142.67 22.08C1142.57 22.3573 1142.44 22.6773 1142.3 23.04C1142.17 23.4027 1142.01 23.8027 1141.84 24.24C1141.68 24.6773 1141.51 25.136 1141.34 25.616H1144.5C1144.33 25.136 1144.16 24.6773 1144 24.24C1143.84 23.8027 1143.69 23.4027 1143.54 23.04C1143.4 22.6773 1143.27 22.3573 1143.17 22.08C1143.06 21.8027 1142.98 21.584 1142.91 21.424ZM1152.26 28.288C1152.7 28.288 1153.01 28.2453 1153.19 28.16C1153.37 28.0747 1153.46 27.9093 1153.46 27.664C1153.46 27.472 1153.35 27.3067 1153.11 27.168C1152.88 27.0187 1152.52 26.8533 1152.04 26.672C1151.67 26.5333 1151.32 26.3893 1151.02 26.24C1150.72 26.0907 1150.46 25.9147 1150.25 25.712C1150.03 25.4987 1149.87 25.248 1149.75 24.96C1149.63 24.672 1149.58 24.3253 1149.58 23.92C1149.58 23.1307 1149.87 22.5067 1150.46 22.048C1151.04 21.5893 1151.85 21.36 1152.87 21.36C1153.38 21.36 1153.87 21.408 1154.34 21.504C1154.81 21.5893 1155.19 21.6853 1155.46 21.792L1155.05 23.648C1154.77 23.552 1154.47 23.4667 1154.14 23.392C1153.82 23.3173 1153.45 23.28 1153.05 23.28C1152.3 23.28 1151.93 23.488 1151.93 23.904C1151.93 24 1151.94 24.0853 1151.98 24.16C1152.01 24.2347 1152.07 24.3093 1152.17 24.384C1152.26 24.448 1152.39 24.5227 1152.55 24.608C1152.72 24.6827 1152.94 24.768 1153.19 24.864C1153.71 25.056 1154.15 25.248 1154.49 25.44C1154.83 25.6213 1155.1 25.824 1155.29 26.048C1155.49 26.2613 1155.63 26.5013 1155.7 26.768C1155.79 27.0347 1155.83 27.344 1155.83 27.696C1155.83 28.528 1155.52 29.1573 1154.89 29.584C1154.27 30.0107 1153.39 30.224 1152.25 30.224C1151.5 30.224 1150.88 30.16 1150.38 30.032C1149.88 29.904 1149.54 29.7973 1149.35 29.712L1149.75 27.776C1150.16 27.936 1150.57 28.064 1151 28.16C1151.43 28.2453 1151.85 28.288 1152.26 28.288ZM1159.87 28.288C1160.31 28.288 1160.62 28.2453 1160.8 28.16C1160.98 28.0747 1161.07 27.9093 1161.07 27.664C1161.07 27.472 1160.95 27.3067 1160.72 27.168C1160.48 27.0187 1160.13 26.8533 1159.65 26.672C1159.27 26.5333 1158.93 26.3893 1158.62 26.24C1158.32 26.0907 1158.07 25.9147 1157.85 25.712C1157.64 25.4987 1157.47 25.248 1157.36 24.96C1157.24 24.672 1157.18 24.3253 1157.18 23.92C1157.18 23.1307 1157.47 22.5067 1158.06 22.048C1158.65 21.5893 1159.45 21.36 1160.48 21.36C1160.99 21.36 1161.48 21.408 1161.95 21.504C1162.42 21.5893 1162.79 21.6853 1163.07 21.792L1162.65 23.648C1162.38 23.552 1162.07 23.4667 1161.74 23.392C1161.42 23.3173 1161.06 23.28 1160.65 23.28C1159.91 23.28 1159.53 23.488 1159.53 23.904C1159.53 24 1159.55 24.0853 1159.58 24.16C1159.61 24.2347 1159.68 24.3093 1159.77 24.384C1159.87 24.448 1160 24.5227 1160.16 24.608C1160.33 24.6827 1160.54 24.768 1160.8 24.864C1161.32 25.056 1161.75 25.248 1162.09 25.44C1162.43 25.6213 1162.7 25.824 1162.89 26.048C1163.1 26.2613 1163.23 26.5013 1163.31 26.768C1163.39 27.0347 1163.44 27.344 1163.44 27.696C1163.44 28.528 1163.12 29.1573 1162.49 29.584C1161.87 30.0107 1160.99 30.224 1159.85 30.224C1159.11 30.224 1158.48 30.16 1157.98 30.032C1157.49 29.904 1157.15 29.7973 1156.96 29.712L1157.36 27.776C1157.76 27.936 1158.18 28.064 1158.61 28.16C1159.03 28.2453 1159.45 28.288 1159.87 28.288ZM1167.44 30H1165.06V21.584H1167.44V30ZM1167.67 19.152C1167.67 19.5893 1167.52 19.936 1167.23 20.192C1166.96 20.4373 1166.63 20.56 1166.24 20.56C1165.86 20.56 1165.52 20.4373 1165.23 20.192C1164.96 19.936 1164.82 19.5893 1164.82 19.152C1164.82 18.7147 1164.96 18.3733 1165.23 18.128C1165.52 17.872 1165.86 17.744 1166.24 17.744C1166.63 17.744 1166.96 17.872 1167.23 18.128C1167.52 18.3733 1167.67 18.7147 1167.67 19.152ZM1169.52 21.872C1169.93 21.7547 1170.45 21.648 1171.09 21.552C1171.73 21.4453 1172.4 21.392 1173.11 21.392C1173.82 21.392 1174.41 21.488 1174.88 21.68C1175.36 21.8613 1175.74 22.1227 1176.02 22.464C1176.3 22.8053 1176.49 23.2107 1176.61 23.68C1176.73 24.1493 1176.79 24.672 1176.79 25.248V30H1174.4V25.536C1174.4 24.768 1174.3 24.224 1174.1 23.904C1173.9 23.584 1173.52 23.424 1172.96 23.424C1172.79 23.424 1172.61 23.4347 1172.42 23.456C1172.23 23.4667 1172.06 23.4827 1171.91 23.504V30H1169.52V21.872ZM1178.39 25.856C1178.39 25.1093 1178.5 24.4587 1178.72 23.904C1178.96 23.3387 1179.26 22.8693 1179.63 22.496C1180.01 22.1227 1180.43 21.84 1180.91 21.648C1181.4 21.456 1181.91 21.36 1182.42 21.36C1183.61 21.36 1184.56 21.728 1185.25 22.464C1185.94 23.1893 1186.29 24.2613 1186.29 25.68C1186.29 25.8187 1186.28 25.9733 1186.27 26.144C1186.26 26.304 1186.25 26.448 1186.24 26.576H1180.83C1180.89 27.0667 1181.12 27.456 1181.52 27.744C1181.93 28.032 1182.47 28.176 1183.15 28.176C1183.59 28.176 1184.02 28.1387 1184.43 28.064C1184.86 27.9787 1185.21 27.8773 1185.47 27.76L1185.79 29.696C1185.67 29.76 1185.49 29.824 1185.28 29.888C1185.07 29.952 1184.83 30.0053 1184.56 30.048C1184.31 30.1013 1184.03 30.144 1183.73 30.176C1183.43 30.208 1183.13 30.224 1182.83 30.224C1182.08 30.224 1181.41 30.112 1180.85 29.888C1180.29 29.664 1179.83 29.36 1179.46 28.976C1179.09 28.5813 1178.82 28.1173 1178.64 27.584C1178.47 27.0507 1178.39 26.4747 1178.39 25.856ZM1183.99 24.944C1183.97 24.7413 1183.94 24.544 1183.87 24.352C1183.82 24.16 1183.73 23.9893 1183.6 23.84C1183.48 23.6907 1183.33 23.568 1183.14 23.472C1182.96 23.376 1182.73 23.328 1182.45 23.328C1182.18 23.328 1181.95 23.376 1181.76 23.472C1181.57 23.5573 1181.41 23.6747 1181.28 23.824C1181.15 23.9733 1181.05 24.1493 1180.98 24.352C1180.91 24.544 1180.87 24.7413 1180.83 24.944H1183.99ZM1197.88 26.272C1197.88 26.816 1197.81 27.328 1197.69 27.808C1197.57 28.288 1197.35 28.7093 1197.05 29.072C1196.75 29.424 1196.34 29.7067 1195.81 29.92C1195.3 30.1227 1194.65 30.224 1193.86 30.224C1193.14 30.224 1192.51 30.1387 1191.99 29.968C1191.47 29.7867 1191.03 29.5787 1190.69 29.344L1191.53 27.408C1191.83 27.5893 1192.17 27.7493 1192.52 27.888C1192.87 28.0267 1193.25 28.096 1193.67 28.096C1194.28 28.096 1194.71 27.9467 1194.98 27.648C1195.25 27.3493 1195.38 26.848 1195.38 26.144V18.912H1197.88V26.272ZM1203.18 28.336C1203.41 28.336 1203.64 28.3307 1203.85 28.32C1204.06 28.3093 1204.23 28.2933 1204.36 28.272V26.464C1204.27 26.4427 1204.12 26.4213 1203.93 26.4C1203.74 26.3787 1203.56 26.368 1203.4 26.368C1203.18 26.368 1202.96 26.384 1202.76 26.416C1202.57 26.4373 1202.4 26.4853 1202.25 26.56C1202.1 26.6347 1201.98 26.736 1201.9 26.864C1201.81 26.992 1201.77 27.152 1201.77 27.344C1201.77 27.7173 1201.89 27.9787 1202.14 28.128C1202.39 28.2667 1202.74 28.336 1203.18 28.336ZM1202.99 21.36C1203.69 21.36 1204.28 21.44 1204.75 21.6C1205.22 21.76 1205.59 21.9893 1205.87 22.288C1206.15 22.5867 1206.36 22.9493 1206.47 23.376C1206.59 23.8027 1206.65 24.2773 1206.65 24.8V29.76C1206.31 29.8347 1205.83 29.92 1205.23 30.016C1204.62 30.1227 1203.88 30.176 1203.02 30.176C1202.47 30.176 1201.98 30.128 1201.53 30.032C1201.09 29.936 1200.71 29.7813 1200.39 29.568C1200.07 29.344 1199.83 29.056 1199.66 28.704C1199.49 28.352 1199.4 27.92 1199.4 27.408C1199.4 26.9173 1199.5 26.5013 1199.69 26.16C1199.89 25.8187 1200.16 25.5467 1200.49 25.344C1200.82 25.1413 1201.2 24.9973 1201.63 24.912C1202.05 24.816 1202.5 24.768 1202.95 24.768C1203.26 24.768 1203.54 24.784 1203.77 24.816C1204.02 24.8373 1204.21 24.8693 1204.36 24.912V24.688C1204.36 24.2827 1204.24 23.9573 1203.99 23.712C1203.75 23.4667 1203.32 23.344 1202.71 23.344C1202.31 23.344 1201.91 23.376 1201.51 23.44C1201.12 23.4933 1200.78 23.5733 1200.49 23.68L1200.19 21.76C1200.32 21.7173 1200.5 21.6747 1200.7 21.632C1200.91 21.5787 1201.14 21.536 1201.39 21.504C1201.63 21.4613 1201.89 21.4293 1202.15 21.408C1202.43 21.376 1202.71 21.36 1202.99 21.36ZM1205.19 18.56L1202.55 20.784L1201.47 19.808L1203.74 17.216L1205.19 18.56Z" fill="#171717"></path><path d="M1268.27 18.6625C1269.29 18.6625 1270.11 19.485 1270.11 20.5C1270.11 21.515 1269.29 22.3375 1268.27 22.3375C1267.26 22.3375 1266.43 21.515 1266.43 20.5C1266.43 19.485 1267.26 18.6625 1268.27 18.6625ZM1268.27 26.5375C1270.87 26.5375 1273.61 27.815 1273.61 28.375V29.3375H1262.93V28.375C1262.93 27.815 1265.67 26.5375 1268.27 26.5375ZM1268.27 17C1266.34 17 1264.77 18.5662 1264.77 20.5C1264.77 22.4338 1266.34 24 1268.27 24C1270.2 24 1271.77 22.4338 1271.77 20.5C1271.77 18.5662 1270.2 17 1268.27 17ZM1268.27 24.875C1265.93 24.875 1261.27 26.0475 1261.27 28.375V30.125C1261.27 30.6063 1261.66 31 1262.15 31H1274.4C1274.88 31 1275.27 30.6063 1275.27 30.125V28.375C1275.27 26.0475 1270.61 24.875 1268.27 24.875Z" fill="#171717"></path><path d="M1298.27 30.224C1296.47 30.224 1295.09 29.7227 1294.14 28.72C1293.2 27.7173 1292.73 26.2933 1292.73 24.448C1292.73 23.5307 1292.88 22.7147 1293.17 22C1293.45 21.2747 1293.85 20.6667 1294.35 20.176C1294.85 19.6747 1295.45 19.296 1296.14 19.04C1296.83 18.784 1297.59 18.656 1298.4 18.656C1298.87 18.656 1299.29 18.6933 1299.68 18.768C1300.06 18.832 1300.4 18.912 1300.69 19.008C1300.97 19.0933 1301.21 19.184 1301.41 19.28C1301.6 19.376 1301.74 19.4507 1301.82 19.504L1301.1 21.52C1300.76 21.3387 1300.36 21.184 1299.9 21.056C1299.45 20.928 1298.94 20.864 1298.37 20.864C1297.98 20.864 1297.6 20.928 1297.23 21.056C1296.87 21.184 1296.54 21.392 1296.25 21.68C1295.98 21.9573 1295.75 22.32 1295.58 22.768C1295.41 23.216 1295.33 23.76 1295.33 24.4C1295.33 24.912 1295.38 25.392 1295.49 25.84C1295.6 26.2773 1295.78 26.656 1296.03 26.976C1296.29 27.296 1296.62 27.552 1297.02 27.744C1297.43 27.9253 1297.92 28.016 1298.49 28.016C1298.86 28.016 1299.18 27.9947 1299.47 27.952C1299.76 27.9093 1300.01 27.8613 1300.24 27.808C1300.46 27.744 1300.66 27.6747 1300.83 27.6C1301 27.5253 1301.15 27.456 1301.29 27.392L1301.98 29.392C1301.63 29.6053 1301.13 29.7973 1300.49 29.968C1299.85 30.1387 1299.11 30.224 1298.27 30.224ZM1310.95 25.776C1310.95 26.4373 1310.86 27.0453 1310.66 27.6C1310.47 28.144 1310.2 28.6133 1309.83 29.008C1309.47 29.392 1309.03 29.6907 1308.52 29.904C1308.02 30.1173 1307.45 30.224 1306.82 30.224C1306.21 30.224 1305.64 30.1173 1305.13 29.904C1304.63 29.6907 1304.2 29.392 1303.83 29.008C1303.47 28.6133 1303.19 28.144 1302.98 27.6C1302.78 27.0453 1302.68 26.4373 1302.68 25.776C1302.68 25.1147 1302.78 24.512 1302.98 23.968C1303.2 23.424 1303.49 22.96 1303.85 22.576C1304.22 22.192 1304.66 21.8933 1305.16 21.68C1305.67 21.4667 1306.23 21.36 1306.82 21.36C1307.43 21.36 1307.99 21.4667 1308.49 21.68C1309 21.8933 1309.44 22.192 1309.8 22.576C1310.16 22.96 1310.45 23.424 1310.65 23.968C1310.85 24.512 1310.95 25.1147 1310.95 25.776ZM1308.52 25.776C1308.52 25.04 1308.37 24.464 1308.07 24.048C1307.78 23.6213 1307.37 23.408 1306.82 23.408C1306.28 23.408 1305.86 23.6213 1305.56 24.048C1305.26 24.464 1305.11 25.04 1305.11 25.776C1305.11 26.512 1305.26 27.0987 1305.56 27.536C1305.86 27.9627 1306.28 28.176 1306.82 28.176C1307.37 28.176 1307.78 27.9627 1308.07 27.536C1308.37 27.0987 1308.52 26.512 1308.52 25.776ZM1312.64 21.872C1313.05 21.7547 1313.57 21.648 1314.21 21.552C1314.85 21.4453 1315.52 21.392 1316.22 21.392C1316.94 21.392 1317.53 21.488 1318 21.68C1318.48 21.8613 1318.86 22.1227 1319.14 22.464C1319.41 22.8053 1319.61 23.2107 1319.73 23.68C1319.85 24.1493 1319.9 24.672 1319.9 25.248V30H1317.52V25.536C1317.52 24.768 1317.42 24.224 1317.22 23.904C1317.01 23.584 1316.63 23.424 1316.08 23.424C1315.91 23.424 1315.73 23.4347 1315.54 23.456C1315.34 23.4667 1315.17 23.4827 1315.02 23.504V30H1312.64V21.872ZM1321.82 19.488L1324.21 19.104V21.584H1327.07V23.568H1324.21V26.528C1324.21 27.0293 1324.29 27.4293 1324.46 27.728C1324.64 28.0267 1325 28.176 1325.53 28.176C1325.79 28.176 1326.05 28.1547 1326.32 28.112C1326.59 28.0587 1326.85 27.9893 1327.07 27.904L1327.41 29.76C1327.12 29.8773 1326.8 29.9787 1326.45 30.064C1326.09 30.1493 1325.66 30.192 1325.15 30.192C1324.5 30.192 1323.96 30.1067 1323.53 29.936C1323.11 29.7547 1322.77 29.5093 1322.51 29.2C1322.25 28.88 1322.07 28.496 1321.97 28.048C1321.87 27.6 1321.82 27.104 1321.82 26.56V19.488ZM1331.75 28.336C1331.99 28.336 1332.21 28.3307 1332.43 28.32C1332.64 28.3093 1332.81 28.2933 1332.94 28.272V26.464C1332.84 26.4427 1332.7 26.4213 1332.51 26.4C1332.31 26.3787 1332.14 26.368 1331.98 26.368C1331.75 26.368 1331.54 26.384 1331.34 26.416C1331.15 26.4373 1330.98 26.4853 1330.83 26.56C1330.68 26.6347 1330.56 26.736 1330.47 26.864C1330.39 26.992 1330.35 27.152 1330.35 27.344C1330.35 27.7173 1330.47 27.9787 1330.71 28.128C1330.97 28.2667 1331.32 28.336 1331.75 28.336ZM1331.56 21.36C1332.27 21.36 1332.85 21.44 1333.32 21.6C1333.79 21.76 1334.17 21.9893 1334.44 22.288C1334.73 22.5867 1334.93 22.9493 1335.05 23.376C1335.17 23.8027 1335.23 24.2773 1335.23 24.8V29.76C1334.89 29.8347 1334.41 29.92 1333.8 30.016C1333.19 30.1227 1332.46 30.176 1331.59 30.176C1331.05 30.176 1330.55 30.128 1330.11 30.032C1329.67 29.936 1329.29 29.7813 1328.97 29.568C1328.65 29.344 1328.41 29.056 1328.23 28.704C1328.06 28.352 1327.98 27.92 1327.98 27.408C1327.98 26.9173 1328.07 26.5013 1328.27 26.16C1328.47 25.8187 1328.74 25.5467 1329.07 25.344C1329.4 25.1413 1329.78 24.9973 1330.2 24.912C1330.63 24.816 1331.07 24.768 1331.53 24.768C1331.84 24.768 1332.11 24.784 1332.35 24.816C1332.59 24.8373 1332.79 24.8693 1332.94 24.912V24.688C1332.94 24.2827 1332.82 23.9573 1332.57 23.712C1332.33 23.4667 1331.9 23.344 1331.29 23.344C1330.89 23.344 1330.49 23.376 1330.09 23.44C1329.7 23.4933 1329.35 23.5733 1329.07 23.68L1328.76 21.76C1328.9 21.7173 1329.07 21.6747 1329.27 21.632C1329.49 21.5787 1329.72 21.536 1329.96 21.504C1330.21 21.4613 1330.46 21.4293 1330.73 21.408C1331.01 21.376 1331.29 21.36 1331.56 21.36ZM1346.47 20.832C1345.31 20.832 1344.47 21.1573 1343.95 21.808C1343.43 22.448 1343.18 23.328 1343.18 24.448C1343.18 24.992 1343.24 25.488 1343.37 25.936C1343.5 26.3733 1343.69 26.752 1343.95 27.072C1344.2 27.392 1344.52 27.6427 1344.91 27.824C1345.29 27.9947 1345.74 28.08 1346.25 28.08C1346.53 28.08 1346.76 28.0747 1346.95 28.064C1347.16 28.0533 1347.33 28.032 1347.48 28V24.144H1349.98V29.632C1349.68 29.7493 1349.2 29.872 1348.54 30C1347.88 30.1387 1347.06 30.208 1346.09 30.208C1345.26 30.208 1344.5 30.08 1343.82 29.824C1343.15 29.568 1342.57 29.1947 1342.09 28.704C1341.61 28.2133 1341.24 27.6107 1340.97 26.896C1340.71 26.1813 1340.59 25.3653 1340.59 24.448C1340.59 23.52 1340.73 22.6987 1341.02 21.984C1341.31 21.2693 1341.7 20.6667 1342.2 20.176C1342.7 19.6747 1343.29 19.296 1343.96 19.04C1344.64 18.784 1345.37 18.656 1346.14 18.656C1346.66 18.656 1347.13 18.6933 1347.55 18.768C1347.97 18.832 1348.34 18.912 1348.63 19.008C1348.94 19.0933 1349.19 19.184 1349.39 19.28C1349.59 19.376 1349.73 19.4507 1349.82 19.504L1349.1 21.504C1348.76 21.3227 1348.36 21.168 1347.91 21.04C1347.48 20.9013 1347 20.832 1346.47 20.832ZM1355.34 30.16C1354.65 30.1493 1354.08 30.0747 1353.64 29.936C1353.22 29.7973 1352.88 29.6053 1352.62 29.36C1352.37 29.104 1352.2 28.8 1352.11 28.448C1352.02 28.0853 1351.98 27.68 1351.98 27.232V17.968L1354.36 17.584V26.752C1354.36 26.9653 1354.38 27.1573 1354.41 27.328C1354.44 27.4987 1354.5 27.6427 1354.59 27.76C1354.68 27.8773 1354.82 27.9733 1354.99 28.048C1355.16 28.1227 1355.39 28.1707 1355.68 28.192L1355.34 30.16ZM1364.75 25.776C1364.75 26.4373 1364.66 27.0453 1364.47 27.6C1364.27 28.144 1364 28.6133 1363.63 29.008C1363.27 29.392 1362.83 29.6907 1362.32 29.904C1361.82 30.1173 1361.26 30.224 1360.63 30.224C1360.01 30.224 1359.44 30.1173 1358.93 29.904C1358.43 29.6907 1358 29.392 1357.63 29.008C1357.27 28.6133 1356.99 28.144 1356.79 27.6C1356.58 27.0453 1356.48 26.4373 1356.48 25.776C1356.48 25.1147 1356.58 24.512 1356.79 23.968C1357 23.424 1357.29 22.96 1357.65 22.576C1358.02 22.192 1358.46 21.8933 1358.96 21.68C1359.47 21.4667 1360.03 21.36 1360.63 21.36C1361.23 21.36 1361.79 21.4667 1362.29 21.68C1362.8 21.8933 1363.24 22.192 1363.6 22.576C1363.97 22.96 1364.25 23.424 1364.45 23.968C1364.65 24.512 1364.75 25.1147 1364.75 25.776ZM1362.32 25.776C1362.32 25.04 1362.17 24.464 1361.87 24.048C1361.59 23.6213 1361.17 23.408 1360.63 23.408C1360.08 23.408 1359.66 23.6213 1359.36 24.048C1359.06 24.464 1358.91 25.04 1358.91 25.776C1358.91 26.512 1359.06 27.0987 1359.36 27.536C1359.66 27.9627 1360.08 28.176 1360.63 28.176C1361.17 28.176 1361.59 27.9627 1361.87 27.536C1362.17 27.0987 1362.32 26.512 1362.32 25.776ZM1371.83 25.728C1371.83 24.192 1371.27 23.424 1370.14 23.424C1369.89 23.424 1369.65 23.456 1369.4 23.52C1369.17 23.584 1368.97 23.664 1368.83 23.76V28.096C1368.94 28.1173 1369.09 28.1387 1369.27 28.16C1369.45 28.1707 1369.65 28.176 1369.87 28.176C1370.52 28.176 1371.01 27.952 1371.34 27.504C1371.67 27.056 1371.83 26.464 1371.83 25.728ZM1374.27 25.792C1374.27 26.464 1374.16 27.072 1373.96 27.616C1373.77 28.16 1373.49 28.624 1373.11 29.008C1372.74 29.392 1372.28 29.6907 1371.74 29.904C1371.19 30.1067 1370.57 30.208 1369.88 30.208C1369.59 30.208 1369.29 30.192 1368.97 30.16C1368.66 30.1387 1368.35 30.1067 1368.04 30.064C1367.74 30.0213 1367.45 29.9733 1367.18 29.92C1366.9 29.856 1366.65 29.792 1366.44 29.728V17.968L1368.83 17.584V21.776C1369.09 21.6587 1369.37 21.568 1369.66 21.504C1369.95 21.44 1370.25 21.408 1370.59 21.408C1371.18 21.408 1371.71 21.5147 1372.17 21.728C1372.63 21.9307 1373.01 22.224 1373.32 22.608C1373.63 22.992 1373.87 23.456 1374.03 24C1374.19 24.5333 1374.27 25.1307 1374.27 25.792ZM1383.81 25.776C1383.81 26.4373 1383.71 27.0453 1383.52 27.6C1383.33 28.144 1383.05 28.6133 1382.69 29.008C1382.33 29.392 1381.89 29.6907 1381.38 29.904C1380.88 30.1173 1380.31 30.224 1379.68 30.224C1379.06 30.224 1378.5 30.1173 1377.99 29.904C1377.48 29.6907 1377.05 29.392 1376.69 29.008C1376.33 28.6133 1376.04 28.144 1375.84 27.6C1375.64 27.0453 1375.54 26.4373 1375.54 25.776C1375.54 25.1147 1375.64 24.512 1375.84 23.968C1376.06 23.424 1376.34 22.96 1376.71 22.576C1377.08 22.192 1377.52 21.8933 1378.02 21.68C1378.53 21.4667 1379.08 21.36 1379.68 21.36C1380.29 21.36 1380.84 21.4667 1381.35 21.68C1381.86 21.8933 1382.3 22.192 1382.66 22.576C1383.02 22.96 1383.3 23.424 1383.51 23.968C1383.71 24.512 1383.81 25.1147 1383.81 25.776ZM1381.38 25.776C1381.38 25.04 1381.23 24.464 1380.93 24.048C1380.64 23.6213 1380.23 23.408 1379.68 23.408C1379.14 23.408 1378.72 23.6213 1378.42 24.048C1378.12 24.464 1377.97 25.04 1377.97 25.776C1377.97 26.512 1378.12 27.0987 1378.42 27.536C1378.72 27.9627 1379.14 28.176 1379.68 28.176C1380.23 28.176 1380.64 27.9627 1380.93 27.536C1381.23 27.0987 1381.38 26.512 1381.38 25.776Z" fill="#171717"></path></svg>